<svg xmlns="http://www.w3.org/2000/svg" xmlns:xlink="http://www.w3.org/1999/xlink" viewBox="0 0 438 300.57"><defs><style>.cls-1{isolation:isolate;}.cls-2{opacity:0.2;mix-blend-mode:multiply;}.cls-3{fill:#f2f2f2;}.cls-4{fill:#fff;}</style></defs><g class="cls-1"><g><path class="cls-3" d="M79.76,182.52V154H6.4V126.45L49.11,9.59H88.93L42.56,122.52h37.2V74h36.16v48.47h16.51V154H115.92v28.56Z"/><path class="cls-3" d="M165.83,27.93Q182.73,6.45,216,6.45t50.17,21.48q16.9,21.49,16.9,69T266.3,165.09q-16.77,20.57-50.3,20.57t-50.3-20.57Q148.93,144.53,148.93,97T165.83,27.93Zm80,68.25q0-32.35-6.81-45.33t-22.92-13Q200,37.89,193.08,51t-6.94,45.33q0,32.23,7.07,45.06t23.06,12.84q16,0,22.79-12.84T245.87,96.19Z"/><path class="cls-3" d="M373.2,182.52V154H299.84V126.45L342.55,9.59h39.82L336,122.52h37.2V74h36.16v48.47h16.51V154H409.36v28.56Z"/></g></g></svg>