<svg version="1.1" id="Capa_1" xmlns="http://www.w3.org/2000/svg" xmlns:xlink="http://www.w3.org/1999/xlink" x="0px" y="0px" viewBox="0 0 512.047 512.047" xml:space="preserve"> <path style="fill:#78909C;" d="M501.381,170.69h-32c-2.505,0.002-4.929,0.886-6.848,2.496l-330.667,256 c-2.418,2.025-3.816,5.016-3.819,8.171v42.667c0,5.891,4.776,10.667,10.667,10.667h362.667c5.891,0,10.667-4.776,10.667-10.667 V181.357C512.047,175.466,507.272,170.69,501.381,170.69z"/> <path style="fill:#90A4AE;" d="M458.714,106.69h-32c-2.505,0.002-4.929,0.886-6.848,2.496L89.199,386.52 c-2.418,2.025-3.816,5.016-3.819,8.171v42.667c0,5.891,4.776,10.667,10.667,10.667h362.667c5.891,0,10.667-4.776,10.667-10.667v-320 C469.381,111.466,464.605,106.69,458.714,106.69z"/> <path style="fill:#B0BEC5;" d="M416.047,64.024h-32c-2.505,0.002-4.929,0.886-6.848,2.496L46.533,343.853 c-2.418,2.025-3.816,5.016-3.819,8.171v42.667c0,5.891,4.776,10.667,10.667,10.667h362.667c5.891,0,10.667-4.776,10.667-10.667v-320 C426.714,68.799,421.938,64.024,416.047,64.024z"/> <path style="fill:#CFD8DC;" d="M373.381,21.357H10.714c-5.891,0-10.667,4.776-10.667,10.667v320 c0.003,5.891,4.782,10.664,10.673,10.66c3.619-0.002,6.99-1.839,8.954-4.879l88.853-138.219l54.656,54.656 c2.305,2.424,5.657,3.557,8.96,3.029c3.295-0.437,6.198-2.386,7.851-5.269l75.435-132.032l108.416,216.832 c1.808,3.609,5.499,5.888,9.536,5.888c0.827,0.004,1.651-0.096,2.453-0.299c4.809-1.136,8.207-5.427,8.213-10.368v-320 C384.047,26.133,379.272,21.357,373.381,21.357z"/> <circle style="fill:#FFC107;" cx="117.381" cy="117.357" r="53.333"/> <path style="fill:#00BCD4;" d="M382.917,347.245L265.583,112.578c-1.759-3.515-5.309-5.777-9.237-5.888 c-3.912-0.022-7.545,2.021-9.557,5.376l-78.4,137.216l-54.123-54.144c-2.253-2.331-5.462-3.482-8.683-3.115 c-3.208,0.347-6.086,2.127-7.829,4.843l-96,149.333c-3.217,4.935-1.823,11.544,3.112,14.76c1.739,1.134,3.772,1.735,5.848,1.73 h362.667c5.891,0,10.667-4.776,10.666-10.667C384.047,350.364,383.66,348.728,382.917,347.245L382.917,347.245z"/> <path d="M373.381,362.69H10.714c-5.891,0-10.667-4.776-10.667-10.667v-320c0-5.891,4.776-10.667,10.667-10.667h362.667 c5.891,0,10.667,4.776,10.667,10.667v320C384.047,357.915,379.272,362.69,373.381,362.69z M21.381,341.357h341.333V42.69H21.381 V341.357z"/> <path d="M373.381,362.69c-4.044,0.008-7.745-2.272-9.557-5.888L255.429,139.97l-75.456,132.011 c-1.628,2.925-4.535,4.915-7.851,5.376c-3.303,0.528-6.655-0.605-8.96-3.029l-54.635-54.741L19.674,357.805 c-3.157,4.974-9.748,6.447-14.722,3.29s-6.447-9.748-3.29-14.722c0.023-0.037,0.047-0.073,0.071-0.11l96-149.333 c1.734-2.745,4.623-4.551,7.851-4.907c3.214-0.382,6.423,0.754,8.683,3.072l54.123,54.123l78.4-137.216 c2-3.359,5.649-5.387,9.557-5.312c3.936,0.103,7.496,2.367,9.259,5.888l117.333,234.667c2.634,5.269,0.498,11.676-4.771,14.311 c-0.003,0.001-0.005,0.003-0.008,0.004C376.678,362.308,375.04,362.695,373.381,362.69z"/> <path d="M117.381,170.69c-29.455,0-53.333-23.878-53.333-53.333s23.878-53.333,53.333-53.333s53.333,23.878,53.333,53.333 S146.836,170.69,117.381,170.69z M117.381,85.357c-17.673,0-32,14.327-32,32s14.327,32,32,32s32-14.327,32-32 S135.054,85.357,117.381,85.357z"/> <path d="M416.047,405.357H53.381c-5.891,0-10.667-4.776-10.667-10.667v-42.667c0-5.891,4.776-10.667,10.667-10.667 s10.667,4.776,10.667,10.667v32h341.333V85.357h-21.333c-5.891,0-10.667-4.776-10.667-10.667s4.776-10.667,10.667-10.667h32 c5.891,0,10.667,4.776,10.667,10.667v320C426.714,400.581,421.938,405.357,416.047,405.357z"/> <path d="M458.714,448.024H96.047c-5.891,0-10.667-4.776-10.667-10.667V394.69c0-5.891,4.776-10.667,10.667-10.667 c5.891,0,10.667,4.776,10.667,10.667v32h341.333V128.024h-32c-5.891,0-10.667-4.776-10.667-10.667 c0-5.891,4.776-10.667,10.667-10.667h42.667c5.891,0,10.667,4.776,10.667,10.667v320 C469.381,443.248,464.605,448.024,458.714,448.024z"/> <path d="M501.381,490.69H138.714c-5.891,0-10.667-4.776-10.667-10.667v-42.667c0-5.891,4.776-10.667,10.667-10.667 s10.667,4.776,10.667,10.667v32h341.333V192.024h-32c-5.891,0-10.667-4.776-10.667-10.667c0-5.891,4.776-10.667,10.667-10.667 h42.667c5.891,0,10.667,4.776,10.667,10.667v298.667C512.047,485.915,507.272,490.69,501.381,490.69z"/> </svg>