<svg viewBox="-22 0 512 512" xmlns="http://www.w3.org/2000/svg"><path d="m83.929688 9.992188c24.277343 0 43.960937 19.679687 43.960937 43.960937v7.992187c0 24.28125-19.683594 43.964844-43.960937 43.964844-24.28125 0-43.964844-19.683594-43.964844-43.964844v-7.992187c0-24.28125 19.683594-43.960937 43.964844-43.960937zm0 0" fill="#ffd0bb"/><path d="m9.992188 239.792969v-69.9375c0-35.316407 28.628906-63.945313 63.945312-63.945313h19.980469c35.316406 0 63.945312 28.628906 63.945312 63.945313v69.9375c0 18.765625-15.207031 33.972656-33.96875 33.972656h-79.933593c-18.761719 0-33.96875-15.207031-33.96875-33.972656zm0 0" fill="#ade5ff"/><path d="m43.960938 258.777344h79.933593v243.230468h-79.933593zm0 0" fill="#4dbaf6"/><path d="m262.335938 392.898438h5.75c15.222656 0 27.5625-12.34375 27.5625-27.566407v-22.585937c0-26.953125-21.847657-48.804688-48.800782-48.804688h-45.175781c-26.953125 0-48.804687 21.851563-48.804687 48.804688v22.585937c0 15.226563 12.34375 27.566407 27.566406 27.566407h5.75" fill="#36d28f"/><path d="m262.335938 392.898438v61.777343c0 10.515625-8.523438 19.039063-19.039063 19.039063s-19.039063-8.523438-19.039063-19.039063v-41.15625 69.015625c0 10.511719-8.523437 19.035156-19.035156 19.035156-10.515625 0-19.039062-8.523437-19.039062-19.035156v-89.636718" fill="#36d28f"/><path d="m259.804688 258.246094c0 19.714844-15.980469 35.695312-35.695313 35.695312s-35.695313-15.980468-35.695313-35.695312 15.980469-35.695313 35.695313-35.695313 35.695313 15.980469 35.695313 35.695313zm0 0" fill="#ffd0bb"/><path d="m373.554688 19.984375c33.109374 0 59.949218 26.839844 59.949218 59.945313v66.445312h-119.898437v-66.445312c0-33.105469 26.839843-59.945313 59.949219-59.945313zm0 0" fill="#ffc66c"/><g fill="#ffd0bb"><path d="m358.683594 76.574219h29.742187c7.238281 0 13.105469 5.871093 13.105469 13.105469v12.359374c0 15.449219-12.523438 27.976563-27.976562 27.976563-15.449219 0-27.976563-12.527344-27.976563-27.976563v-12.359374c0-7.238282 5.867187-13.105469 13.105469-13.105469zm0 0"/><path d="m355.570312 501.570312c9.933594 0 17.984376-8.050781 17.984376-17.984374v-103.191407h-35.96875v103.191407c0 9.933593 8.050781 17.984374 17.984374 17.984374zm0 0"/><path d="m391.539062 501.570312c-9.929687 0-17.984374-8.050781-17.984374-17.984374v-103.191407h35.96875v103.191407c0 9.933593-8.050782 17.984374-17.984376 17.984374zm0 0"/></g><path d="m329.59375 273.890625h-2.5c-20.621094 0-37.339844-16.71875-37.339844-37.34375v-48.707031c0-31.9375 25.886719-57.824219 57.824219-57.824219h52.203125c31.9375 0 57.828125 25.886719 57.828125 57.824219v48.707031c0 20.625-16.71875 37.34375-37.34375 37.34375" fill="#ade5ff"/><path d="m329.59375 197.941406v182.453125h87.925781v-182.453125" fill="#ade5ff"/><path d="m167.855469 239.792969v-69.9375c0-31.207031-19.445313-57.941407-46.84375-68.773438 10.378906-9.839843 16.871093-23.738281 16.871093-39.136719v-7.992187c0-29.75-24.203124-53.953125-53.953124-53.953125s-53.957032 24.203125-53.957032 53.953125v7.992187c0 15.398438 6.496094 29.296876 16.871094 39.136719-27.398438 10.832031-46.84375 37.566407-46.84375 68.773438v69.9375c0 20.804687 14.53125 38.265625 33.972656 42.804687v21.695313c0 5.515625 4.472656 9.988281 9.988282 9.988281 5.519531 0 9.992187-4.472656 9.992187-9.988281v-35.523438h59.949219v213.257813c0 5.507812-4.480469 9.988281-9.992188 9.988281-5.507812 0-9.992187-4.480469-9.992187-9.988281v-140.574219c0-5.515625-4.472657-9.992187-9.988281-9.992187-5.519532 0-9.992188 4.476562-9.992188 9.992187v140.570313c0 5.511718-4.484375 9.992187-9.992188 9.992187-5.507812 0-9.992187-4.480469-9.992187-9.992187v-101.628907c0-5.519531-4.472656-9.992187-9.992187-9.992187-5.515626 0-9.988282 4.472656-9.988282 9.992187v101.632813c0 16.527344 13.445313 29.972656 29.972656 29.972656 7.671876 0 14.675782-2.898438 19.984376-7.65625 5.304687 4.753906 12.308593 7.65625 19.980468 7.65625 16.527344 0 29.976563-13.445312 29.976563-29.972656v-199.429688c19.441406-4.539062 33.96875-22 33.96875-42.804687zm-117.898438-185.839844c0-18.730469 15.238281-33.96875 33.972657-33.96875 18.730468 0 33.96875 15.238281 33.96875 33.96875v7.992187c0 18.734376-15.238282 33.972657-33.96875 33.972657-18.734376 0-33.972657-15.238281-33.972657-33.972657zm3.996094 194.835937v-42.964843c0-5.515625-4.472656-9.992188-9.992187-9.992188-5.515626 0-9.988282 4.476563-9.988282 9.992188v55.761719c-8.246094-3.796876-13.988281-12.132813-13.988281-21.792969v-69.9375c0-29.75 24.203125-53.953125 53.953125-53.953125h19.980469c29.75 0 53.957031 24.203125 53.957031 53.953125v69.9375c0 9.660156-5.742188 17.996093-13.988281 21.792969v-55.761719c0-5.515625-4.476563-9.992188-9.992188-9.992188-5.519531 0-9.992187 4.476563-9.992187 9.992188v42.964843zm0 0"/><path d="m43.960938 351.449219c2.628906 0 5.207031-1.070313 7.0625-2.929688 1.859374-1.855469 2.929687-4.433593 2.929687-7.0625 0-2.640625-1.070313-5.207031-2.929687-7.0625-1.855469-1.871093-4.433594-2.929687-7.0625-2.929687-2.636719 0-5.203126 1.058594-7.0625 2.929687-1.859376 1.855469-2.925782 4.425781-2.925782 7.0625 0 2.628907 1.066406 5.207031 2.925782 7.0625 1.859374 1.859375 4.4375 2.929688 7.0625 2.929688zm0 0"/><path d="m260.671875 285.609375c5.726563-7.632813 9.125-17.109375 9.125-27.363281 0-25.191406-20.496094-45.6875-45.6875-45.6875s-45.6875 20.496094-45.6875 45.6875c0 10.28125 3.414063 19.777344 9.167969 27.421875-25.640625 6.328125-44.714844 29.511719-44.714844 57.078125v22.585937c0 19.273438 14.597656 35.199219 33.316406 37.3125v79.890625c0 16.003906 13.023438 29.027344 29.03125 29.027344 16.007813 0 29.027344-13.023438 29.027344-29.027344v-.28125c2.851562.9375 5.890625 1.453125 9.046875 1.453125 16.007813 0 29.03125-13.023437 29.03125-29.03125v-52.03125c18.71875-2.113281 33.3125-18.039062 33.3125-37.3125v-22.585937c0-27.65625-19.199219-50.902344-44.96875-57.136719zm-36.5625-53.066406c14.171875 0 25.703125 11.53125 25.703125 25.707031 0 14.171875-11.53125 25.703125-25.703125 25.703125-14.175781 0-25.703125-11.53125-25.703125-25.703125 0-14.175781 11.527344-25.707031 25.703125-25.707031zm61.550781 132.789062c0 8.226563-5.691406 15.128907-13.335937 17.035157v-38.949219c0-5.515625-4.472657-9.988281-9.988281-9.988281-5.519532 0-9.992188 4.472656-9.992188 9.988281v111.257812c0 4.988281-4.058594 9.046875-9.046875 9.046875s-9.046875-4.058594-9.046875-9.046875v-50.460937c0-5.515625-4.472656-9.992188-9.992188-9.992188-5.515624 0-9.988281 4.476563-9.988281 9.992188v78.320312c0 4.984375-4.058593 9.042969-9.046875 9.042969-4.988281 0-9.046875-4.058594-9.046875-9.042969v-139.113281c0-5.519531-4.476562-9.992187-9.992187-9.992187-5.519532 0-9.992188 4.472656-9.992188 9.992187v38.945313c-7.644531-1.902344-13.332031-8.808594-13.332031-17.03125v-22.589844c0-21.402344 17.410156-38.8125 38.8125-38.8125h45.171875c21.402344 0 38.8125 17.410156 38.8125 38.8125v22.585937zm0 0"/><path d="m443.496094 136.046875v-56.117187c0-38.5625-31.375-69.9375-69.941406-69.9375-38.5625 0-69.9375 31.375-69.9375 69.9375v56.332031c-14.585938 12.449219-23.855469 30.945312-23.855469 51.578125v48.707031c0 23.550781 17.289062 43.132813 39.839843 46.734375v97.113281c0 4.832031 3.433594 8.863281 7.992188 9.789063v93.402344c0 15.425781 12.550781 27.976562 27.976562 27.976562 6.84375 0 13.117188-2.472656 17.984376-6.570312 4.867187 4.097656 11.140624 6.570312 17.984374 6.570312 15.425782 0 27.976563-12.550781 27.976563-27.976562v-93.402344c4.5625-.925782 7.992187-4.957032 7.992187-9.789063v-16.988281c0-5.515625-4.472656-9.988281-9.988281-9.988281-5.519531 0-9.992187 4.472656-9.992187 9.988281v6.996094h-67.941406v-172.460938c0-5.519531-4.476563-9.992187-9.992188-9.992187-5.519531 0-9.992188 4.472656-9.992188 9.992187v64.90625c-11.449218-3.269531-19.859374-13.816406-19.859374-26.300781v-48.707031c0-26.375 21.460937-47.835938 47.835937-47.835938h52.203125c26.378906 0 47.835938 21.460938 47.835938 47.835938v48.707031c0 12.574219-8.53125 23.1875-20.109376 26.371094v-64.976563c0-5.519531-4.472656-9.992187-9.988281-9.992187-5.519531 0-9.992187 4.472656-9.992187 9.992187v91.226563c0 5.515625 4.472656 9.988281 9.992187 9.988281 5.515625 0 9.988281-4.472656 9.988281-9.988281v-5.839844c22.675782-3.496094 40.09375-23.144531 40.09375-46.78125v-48.707031c0-20.75-9.378906-39.34375-24.105468-51.792969zm-43.960938 347.539063c0 4.40625-3.585937 7.992187-7.996094 7.992187-4.40625 0-7.992187-3.585937-7.992187-7.992187v-93.199219h15.988281zm-35.972656-93.199219v93.199219c0 4.40625-3.585938 7.992187-7.992188 7.992187s-7.992187-3.585937-7.992187-7.992187v-93.199219zm-39.964844-310.457031c0-27.542969 22.410156-49.957032 49.957032-49.957032 27.546874 0 49.957031 22.414063 49.957031 49.957032v44.386718c-5.296875-1.984375-10.902344-3.332031-16.730469-3.933594 3.019531-5.441406 4.742188-11.695312 4.742188-18.34375v-12.359374c0-12.734376-10.363282-23.09375-23.097657-23.09375h-29.742187c-12.734375 0-23.09375 10.359374-23.09375 23.09375v12.359374c0 6.660157 1.730468 12.925782 4.753906 18.371094-5.832031.625-11.445312 1.992188-16.746094 4.003906zm31.972656 22.109374v-12.359374c0-1.714844 1.398438-3.113282 3.113282-3.113282h29.742187c1.71875 0 3.113281 1.398438 3.113281 3.113282v12.359374c0 9.914063-8.066406 17.984376-17.984374 17.984376-9.914063 0-17.984376-8.070313-17.984376-17.984376zm0 0"/><path d="m417.511719 316.949219c-2.625 0-5.203125 1.066406-7.0625 2.925781s-2.917969 4.4375-2.917969 7.0625c0 2.628906 1.058594 5.207031 2.917969 7.066406 1.859375 1.855469 4.4375 2.925782 7.0625 2.925782 2.640625 0 5.207031-1.066407 7.0625-2.925782 1.871093-1.859375 2.929687-4.429687 2.929687-7.066406s-1.058594-5.203125-2.929687-7.0625c-1.855469-1.859375-4.421875-2.925781-7.0625-2.925781zm0 0"/></svg>