<svg version="1.1" id="Capa_1" xmlns="http://www.w3.org/2000/svg" xmlns:xlink="http://www.w3.org/1999/xlink" x="0px" y="0px" viewBox="0 0 480 480" xml:space="preserve"> <path style="fill:#FF2904;" d="M436,8h32v112h-32V8z"/> <path style="fill:#F8AF48;" d="M468,120v128l-24-8l-8-120H468z"/> <path style="fill:#E2DFDC;" d="M12,8v128v208v128h328V344V136V8H12z"/> <g> <path style="fill:#454545;" d="M412,120h-16V40c0.001-3.647,2.469-6.832,6-7.744l30.96-8l4,15.488L412,46.192V120z"/> <path style="fill:#454545;" d="M458.96,312c-2.576-0.001-4.994-1.243-6.496-3.336l-22.968-32c-1.731-2.412-1.983-5.584-0.656-8.24 l8-16l14.12,7.056V248h16v56C466.96,308.418,463.378,312,458.96,312z M445.36,271.256l5.6,7.872V260L445.36,271.256z"/> </g> <g> <g> <path id="SVGCleanerId_0" style="fill:#CCC1BC;" d="M76,96h240v16H76V96z"/> </g> <g> <path id="SVGCleanerId_1" style="fill:#CCC1BC;" d="M36,128h280v16H36V128z"/> </g> <g> <path id="SVGCleanerId_2" style="fill:#CCC1BC;" d="M124,160h128v16H124V160z"/> </g> <g> <path id="SVGCleanerId_3" style="fill:#CCC1BC;" d="M124,192h64v16h-64V192z"/> </g> <g> <path id="SVGCleanerId_4" style="fill:#CCC1BC;" d="M124,224h128v16H124V224z"/> </g> <g> <path id="SVGCleanerId_5" style="fill:#CCC1BC;" d="M124,256h104v16H124V256z"/> </g> <g> <path id="SVGCleanerId_6" style="fill:#CCC1BC;" d="M92,304h224v16H92V304z"/> </g> <g> <path id="SVGCleanerId_7" style="fill:#CCC1BC;" d="M36,336h280v16H36V336z"/> </g> <g> <path id="SVGCleanerId_8" style="fill:#CCC1BC;" d="M36,368h248v16H36V368z"/> </g> <g> <path id="SVGCleanerId_9" style="fill:#CCC1BC;" d="M188,416h128v16H188V416z"/> </g> <g> <path id="SVGCleanerId_10" style="fill:#CCC1BC;" d="M92,48h160v16H92V48z"/> </g> <path style="fill:#CCC1BC;" d="M100,208H68c-4.418,0-8-3.582-8-8v-32c0-4.418,3.582-8,8-8h32c4.418,0,8,3.582,8,8v32 C108,204.418,104.418,208,100,208z M76,192h16v-16H76V192z"/> <path style="fill:#CCC1BC;" d="M100,272H68c-4.418,0-8-3.582-8-8v-32c0-4.418,3.582-8,8-8h32c4.418,0,8,3.582,8,8v32 C108,268.418,104.418,272,100,272z M76,256h16v-16H76V256z"/> </g> <path style="fill:#FF2904;" d="M476,120h-16V16h-16v104h-16V8c0-4.418,3.582-8,8-8h32c4.418,0,8,3.582,8,8V120z"/> <path style="fill:#F8AF48;" d="M468,256c-0.859-0.001-1.712-0.138-2.528-0.408l-24-8c-3.092-1.022-5.255-3.815-5.472-7.064l-8-120 c-0.292-4.409,3.046-8.219,7.455-8.511c0.182-0.012,0.363-0.018,0.545-0.017h32c4.418,0,8,3.582,8,8v128 C476,252.418,472.418,256,468,256z M451.624,234.112l8.376,2.792V128h-15.448L451.624,234.112z"/> <g> <path style="fill:#454545;" d="M436,408v-16c8.837,0,16-7.163,16-16v-48h16v48C468,393.673,453.673,408,436,408z"/> <path style="fill:#454545;" d="M436,408h-20c-15.464,0-28-12.536-28-28s12.536-28,28-28s28,12.536,28,28v20 C444,404.418,440.418,408,436,408z M416,368c-6.627,0-12,5.373-12,12s5.373,12,12,12h12v-12C428,373.373,422.627,368,416,368z"/> <path style="fill:#454545;" d="M412,432h-48v-16h48c8.837,0,16-7.163,16-16h16C444,417.673,429.673,432,412,432z"/> </g> <path d="M12,480h328c4.418,0,8-3.582,8-8V8c0-4.418-3.582-8-8-8H12C7.582,0,4,3.582,4,8v464C4,476.418,7.582,480,12,480z M20,16h312 v448H20V16z"/> <path id="SVGCleanerId_0_1_" d="M76,96h240v16H76V96z"/> <path id="SVGCleanerId_1_1_" d="M36,128h280v16H36V128z"/> <path id="SVGCleanerId_2_1_" d="M124,160h128v16H124V160z"/> <path id="SVGCleanerId_3_1_" d="M124,192h64v16h-64V192z"/> <path id="SVGCleanerId_4_1_" d="M124,224h128v16H124V224z"/> <path id="SVGCleanerId_5_1_" d="M124,256h104v16H124V256z"/> <path id="SVGCleanerId_6_1_" d="M92,304h224v16H92V304z"/> <path id="SVGCleanerId_7_1_" d="M36,336h280v16H36V336z"/> <path id="SVGCleanerId_8_1_" d="M36,368h248v16H36V368z"/> <path id="SVGCleanerId_9_1_" d="M188,416h128v16H188V416z"/> <path id="SVGCleanerId_10_1_" d="M92,48h160v16H92V48z"/> <path d="M68,208h32c4.418,0,8-3.582,8-8v-32c0-4.418-3.582-8-8-8H68c-4.418,0-8,3.582-8,8v32C60,204.418,63.582,208,68,208z M76,176 h16v16H76V176z"/> <path d="M60,264c0,4.418,3.582,8,8,8h32c4.418,0,8-3.582,8-8v-32c0-4.418-3.582-8-8-8H68c-4.418,0-8,3.582-8,8V264z M76,240h16v16 H76V240z"/> <path d="M472.672,254.488c2.088-1.502,3.326-3.916,3.328-6.488V8c0-4.418-3.582-8-8-8h-32c-4.418,0-8,3.582-8,8v17.544l-26,6.712 c-3.531,0.912-5.999,4.097-6,7.744v80h16V46.2l16-4.128V120c0,0.096,0.048,0.176,0.056,0.272s0,0.168,0,0.256l8,120 c0.214,3.245,2.371,6.037,5.456,7.064l9.528,3.2v8.736l-14.16-7.08l-8,16c-1.325,2.657-1.069,5.829,0.664,8.24l23,32 c1.502,2.093,3.92,3.335,6.496,3.336c0.833-0.002,1.662-0.131,2.456-0.384c3.298-1.083,5.521-4.169,5.504-7.64v-48.16 c0.33,0.073,0.664,0.126,1,0.16C469.678,256.002,471.313,255.473,472.672,254.488L472.672,254.488z M451,279.2l-5.68-7.912 L451,259.92V279.2z M460,236.904l-8.376-2.792L444.552,128H460V236.904z M460,112h-16V16h16V112z"/> <path d="M468,376v-48h-16v48c-0.003,5.713-3.052,10.991-8,13.848V380c0-15.464-12.536-28-28-28s-28,12.536-28,28s12.536,28,28,28 h9.848c-2.857,4.948-8.135,7.997-13.848,8h-48v16h48c14.9-0.011,27.827-10.287,31.2-24.8C457.713,403.827,467.989,390.9,468,376z M428,392h-12c-6.627,0-12-5.373-12-12s5.373-12,12-12s12,5.373,12,12V392z"/> </svg>