<svg version="1.1" id="Capa_1" xmlns="http://www.w3.org/2000/svg" xmlns:xlink="http://www.w3.org/1999/xlink" x="0px" y="0px" viewBox="0 0 512 512" xml:space="preserve"> <path style="fill:#5A54E0;" d="M361.768,321.347L493.64,453.22c11.042,11.042,10.954,29.198-0.194,40.346l0,0 c-11.149,11.149-29.305,11.236-40.346,0.194L321.226,361.888L361.768,321.347z"/> <rect x="328.962" y="334.945" transform="matrix(0.7071 -0.7071 0.7071 0.7071 -148.2197 357.6628)" style="fill:#FFFFFF;" width="57.33" height="45.607"/> <path style="fill:#72D8FF;" d="M393.961,201.956c0-106.025-85.944-191.969-191.969-191.969S10.024,95.931,10.024,201.956 s85.944,191.969,191.969,191.969S393.961,307.98,393.961,201.956z"/> <circle style="fill:#FFFFFF;" cx="201.997" cy="201.957" r="143.976"/> <path style="fill:#FF5D5D;" d="M227.289,197.756h-50.591c-32.414,0-58.69,26.277-58.69,58.69v5.166H285.98v-5.166 C285.979,224.032,259.702,197.756,227.289,197.756z"/> <path style="fill:#FCC69D;" d="M201.993,108.672L201.993,108.672c-20.984,0-37.994,17.01-37.994,37.994v13.096 c0,20.984,17.01,37.994,37.994,37.994l0,0c20.984,0,37.994-17.01,37.994-37.994v-13.096 C239.987,125.682,222.977,108.672,201.993,108.672z"/> <path d="M500.71,446.149l-92.7-92.7c2.548-3.879,2.118-9.142-1.293-12.552c-3.41-3.41-8.674-3.841-12.552-1.293l-24.737-24.737 c18.489-27.447,30.128-59.238,33.495-92.395c4.611-45.412-6.37-91.445-30.92-129.622c-2.988-4.645-9.174-5.988-13.818-3.002 c-4.644,2.987-5.988,9.174-3.002,13.818c45.911,71.392,35.6,166.844-24.517,226.961c-70.95,70.95-186.394,70.95-257.345,0 c-70.95-70.949-70.95-186.393,0-257.344c60.181-60.181,152.594-70.842,224.73-25.931c4.686,2.918,10.853,1.485,13.772-3.203 c2.919-4.687,1.484-10.853-3.203-13.772C270.552,6.677,224.901-3.693,180.068,1.174C134.551,6.117,91.62,26.705,59.18,59.143 c-78.746,78.747-78.746,206.878,0,285.624c39.374,39.374,91.093,59.06,142.813,59.06c39.403,0,78.798-11.44,112.741-34.292 l24.613,24.613c-3.698,3.918-3.639,10.089,0.195,13.924c1.953,1.953,4.511,2.928,7.07,2.928c2.468,0,4.93-0.917,6.854-2.733 l92.563,92.563c7.45,7.45,17.244,11.169,27.065,11.169c9.911,0,19.85-3.791,27.423-11.364 C515.591,485.56,515.679,461.117,500.71,446.149z M361.768,335.487l18.11,18.11l-26.402,26.402l-18.11-18.11L361.768,335.487z M486.376,486.496c-7.28,7.279-19.036,7.367-26.207,0.194l-92.553-92.553l26.402-26.402l92.552,92.553 C493.742,467.461,493.655,479.217,486.376,486.496z"/> <path d="M330.904,73.522c1.953,1.953,4.511,2.929,7.07,2.929c2.559,0,5.118-0.976,7.07-2.929c3.904-3.904,3.904-10.235,0-14.141 l-0.217-0.217c-3.892-3.916-10.223-3.935-14.14-0.043s-3.936,10.223-0.043,14.14L330.904,73.522z"/> <path d="M201.993,47.981c-84.902,0-153.975,69.073-153.975,153.975s69.073,153.975,153.975,153.975s153.975-69.073,153.975-153.975 S286.895,47.981,201.993,47.981z M201.993,335.934c-73.876,0-133.978-60.102-133.978-133.978S128.117,67.978,201.993,67.978 s133.978,60.102,133.978,133.978S275.869,335.934,201.993,335.934z"/> <path d="M240.041,188.963c6.228-8.096,9.944-18.22,9.944-29.201v-13.096c0-26.463-21.529-47.992-47.992-47.992 s-47.992,21.529-47.992,47.992v13.096c0,10.981,3.715,21.106,9.944,29.201c-31.8,5.997-55.937,33.966-55.937,67.484v5.166 c0,5.522,4.476,9.998,9.998,9.998h167.972c5.522,0,9.998-4.476,9.998-9.998v-5.166C295.978,222.93,271.841,194.961,240.041,188.963z M173.998,146.666c0-15.436,12.559-27.995,27.995-27.995s27.995,12.559,27.995,27.995v13.096c0,15.436-12.559,27.995-27.995,27.995 s-27.995-12.559-27.995-27.995V146.666z M128.243,251.614c2.434-24.589,23.236-43.86,48.455-43.86h50.591 c25.219,0,46.021,19.271,48.455,43.86H128.243z"/> <path d="M442.305,44.412c5.522,0,9.998-4.476,9.998-9.998V21.985c0-5.522-4.476-9.998-9.998-9.998c-5.522,0-9.998,4.476-9.998,9.998 v12.428C432.306,39.935,436.782,44.412,442.305,44.412z"/> <path d="M442.305,103.972c5.522,0,9.998-4.476,9.998-9.998V81.546c0-5.522-4.476-9.998-9.998-9.998 c-5.522,0-9.998,4.476-9.998,9.998v12.428C432.306,99.496,436.782,103.972,442.305,103.972z"/> <path d="M465.871,67.978h12.428c5.522,0,9.998-4.476,9.998-9.998s-4.476-9.998-9.998-9.998h-12.428 c-5.522,0-9.998,4.476-9.998,9.998S460.349,67.978,465.871,67.978z"/> <path d="M406.31,67.978h12.428c5.522,0,9.998-4.476,9.998-9.998s-4.476-9.998-9.998-9.998H406.31c-5.522,0-9.998,4.476-9.998,9.998 S400.788,67.978,406.31,67.978z"/> <path d="M61.937,412.008c-5.522,0-9.998,4.476-9.998,9.998v12.428c0,5.522,4.476,9.998,9.998,9.998s9.998-4.476,9.998-9.998v-12.428 C71.935,416.484,67.459,412.008,61.937,412.008z"/> <path d="M61.937,471.568c-5.522,0-9.998,4.476-9.998,9.998v12.428c0,5.522,4.476,9.998,9.998,9.998s9.998-4.476,9.998-9.998v-12.428 C71.935,476.044,67.459,471.568,61.937,471.568z"/> <path d="M97.931,448.002H85.503c-5.522,0-9.998,4.476-9.998,9.998s4.476,9.998,9.998,9.998h12.428c5.522,0,9.998-4.476,9.998-9.998 S103.453,448.002,97.931,448.002z"/> <path d="M38.371,448.002H25.943c-5.522,0-9.998,4.476-9.998,9.998s4.476,9.998,9.998,9.998h12.428c5.522,0,9.998-4.476,9.998-9.998 S43.893,448.002,38.371,448.002z"/></svg>