<svg xmlns="http://www.w3.org/2000/svg" width="70" height="70" viewBox="0 0 70 70" style="width: 100%; height: 100%;"><desc>Made with illustrio</desc>
  
<g class="content"><path class="secondary-fill" d="M55 40h5c2.8 0 5-2.2 5-5s-2.2-5-5-5h-7.5c-2.8 0-5-2.2-5-5s2.2-5 5-5 5-2.2 5-5-2.2-5-5-5h-35c-2.8 0-5 2.2-5 5s2.2 5 5 5H20c2.8 0 5 2.2 5 5s-2.2 5-5 5H10c-2.8 0-5 2.2-5 5s2.2 5 5 5h15c2.8 0 5 2.2 5 5s-2.2 5-5 5h-7.5c-2.8 0-5 2.2-5 5s2.2 5 5 5h40c2.8 0 5-2.2 5-5s-2.2-5-5-5H55c-2.8 0-5-2.2-5-5s2.2-5 5-5z" style="fill-opacity: 0.3;"></path><g class="white-layer"><g fill="#ffffff" fill-rule="evenodd" stroke="none">
    
    
  </g><g fill="#ffffff" transform="translate(19.09 19.09)" stroke="none">
      <path d="M11.4329091 10.5330909C12.6477273 9.52 14.2080909 8.90909091 15.9090909 8.90909091 17.6107273 8.90909091 19.1704545 9.52 20.3852727 10.5330909L26.6922727 4.22545455C23.8553636 1.60490909 20.0664545 0 15.9090909 0 11.7510909 0 7.96281818 1.60490909 5.12590909 4.22609091L11.4329091 10.5330909 11.4329091 10.5330909zM27.5920909 5.12590909L21.2850909 11.4335455C22.2975455 12.6477273 22.9090909 14.2080909 22.9090909 15.9090909 22.9090909 17.6107273 22.2975455 19.1704545 21.2850909 20.3852727L27.5920909 26.6922727C30.2132727 23.8553636 31.8181818 20.0664545 31.8181818 15.9090909 31.8181818 11.7510909 30.2132727 7.96281818 27.5920909 5.12590909L27.5920909 5.12590909zM10.5330909 20.3852727C9.52 19.1704545 8.90909091 17.6107273 8.90909091 15.9090909 8.90909091 14.2080909 9.52 12.6477273 10.5330909 11.4329091L4.22545455 5.12527273C1.60490909 7.96281818 0 11.7510909 0 15.9090909 0 20.0664545 1.60490909 23.8553636 4.22545455 26.6922727L10.5330909 20.3852727 10.5330909 20.3852727zM20.3852727 21.2850909C19.1704545 22.2975455 17.6107273 22.9090909 15.9090909 22.9090909 14.2080909 22.9090909 12.6477273 22.2975455 11.4329091 21.2850909L5.12527273 27.5920909C7.96281818 30.2132727 11.7510909 31.8181818 15.9090909 31.8181818 20.0664545 31.8181818 23.8553636 30.2132727 26.6922727 27.5920909L20.3852727 21.2850909 20.3852727 21.2850909z" fill="#ffffff" stroke="none"></path>
    </g></g><g class="shifted" transform="matrix(1,0,0,1,1.5,0)" style="fill-opacity: 0.3;"><g fill="none" fill-rule="evenodd" stroke="none" class="main-fill">
    
    
  </g><g fill="none" transform="translate(19.09 19.09)" stroke="none" class="main-fill">
      <path d="M11.4329091 10.5330909C12.6477273 9.52 14.2080909 8.90909091 15.9090909 8.90909091 17.6107273 8.90909091 19.1704545 9.52 20.3852727 10.5330909L26.6922727 4.22545455C23.8553636 1.60490909 20.0664545 0 15.9090909 0 11.7510909 0 7.96281818 1.60490909 5.12590909 4.22609091L11.4329091 10.5330909 11.4329091 10.5330909zM27.5920909 5.12590909L21.2850909 11.4335455C22.2975455 12.6477273 22.9090909 14.2080909 22.9090909 15.9090909 22.9090909 17.6107273 22.2975455 19.1704545 21.2850909 20.3852727L27.5920909 26.6922727C30.2132727 23.8553636 31.8181818 20.0664545 31.8181818 15.9090909 31.8181818 11.7510909 30.2132727 7.96281818 27.5920909 5.12590909L27.5920909 5.12590909zM10.5330909 20.3852727C9.52 19.1704545 8.90909091 17.6107273 8.90909091 15.9090909 8.90909091 14.2080909 9.52 12.6477273 10.5330909 11.4329091L4.22545455 5.12527273C1.60490909 7.96281818 0 11.7510909 0 15.9090909 0 20.0664545 1.60490909 23.8553636 4.22545455 26.6922727L10.5330909 20.3852727 10.5330909 20.3852727zM20.3852727 21.2850909C19.1704545 22.2975455 17.6107273 22.9090909 15.9090909 22.9090909 14.2080909 22.9090909 12.6477273 22.2975455 11.4329091 21.2850909L5.12527273 27.5920909C7.96281818 30.2132727 11.7510909 31.8181818 15.9090909 31.8181818 20.0664545 31.8181818 23.8553636 30.2132727 26.6922727 27.5920909L20.3852727 21.2850909 20.3852727 21.2850909z" fill="none" stroke="none" class="main-fill"></path>
    </g></g><g class="base"><g fill="none" fill-rule="evenodd" stroke="none" class="main-stroke--darken">
    
    
  </g><g fill="none" transform="translate(19.09 19.09)" stroke="none" class="main-stroke--darken">
      <path d="M11.4329091 10.5330909C12.6477273 9.52 14.2080909 8.90909091 15.9090909 8.90909091 17.6107273 8.90909091 19.1704545 9.52 20.3852727 10.5330909L26.6922727 4.22545455C23.8553636 1.60490909 20.0664545 0 15.9090909 0 11.7510909 0 7.96281818 1.60490909 5.12590909 4.22609091L11.4329091 10.5330909 11.4329091 10.5330909zM27.5920909 5.12590909L21.2850909 11.4335455C22.2975455 12.6477273 22.9090909 14.2080909 22.9090909 15.9090909 22.9090909 17.6107273 22.2975455 19.1704545 21.2850909 20.3852727L27.5920909 26.6922727C30.2132727 23.8553636 31.8181818 20.0664545 31.8181818 15.9090909 31.8181818 11.7510909 30.2132727 7.96281818 27.5920909 5.12590909L27.5920909 5.12590909zM10.5330909 20.3852727C9.52 19.1704545 8.90909091 17.6107273 8.90909091 15.9090909 8.90909091 14.2080909 9.52 12.6477273 10.5330909 11.4329091L4.22545455 5.12527273C1.60490909 7.96281818 0 11.7510909 0 15.9090909 0 20.0664545 1.60490909 23.8553636 4.22545455 26.6922727L10.5330909 20.3852727 10.5330909 20.3852727zM20.3852727 21.2850909C19.1704545 22.2975455 17.6107273 22.9090909 15.9090909 22.9090909 14.2080909 22.9090909 12.6477273 22.2975455 11.4329091 21.2850909L5.12527273 27.5920909C7.96281818 30.2132727 11.7510909 31.8181818 15.9090909 31.8181818 20.0664545 31.8181818 23.8553636 30.2132727 26.6922727 27.5920909L20.3852727 21.2850909 20.3852727 21.2850909z" fill="none" stroke="none" class="main-stroke--darken"></path>
    </g></g></g><style>
          .main-fill {fill: #1aa5ff;}
          .main-stroke {stroke: #1aa5ff;}
          .secondary-fill {fill: #00252c;}
          .secondary-stroke {stroke: #00252c;}

          .main-fill--darken {fill: #007ccc;}
          .main-stroke--darken {stroke: #007ccc;}
          .secondary-fill--darken {fill: #000000;}
          .secondary-stroke--darken {stroke: #000000;}

          .main-fill--darkener {fill: #005d99;}
          .main-stroke--darkener {stroke: #005d99;}
          .secondary-fill--darkener {fill: #000000;}
          .secondary-stroke--darkener {stroke: #000000;}
        </style></svg>