<svg version="1.1" xmlns="http://www.w3.org/2000/svg" xmlns:xlink="http://www.w3.org/1999/xlink" x="0px" y="0px" viewBox="0 0 480 480" xml:space="preserve"> <polygon style="fill:#FFC931;" points="304,192 336,192 336,168 280,144 280,224 296,224 "/> <path style="fill:#406AF2;" d="M88,72V48h88c22.088,0,40-17.912,40-40H64C46.328,8,32,22.328,32,40v72h16 C70.088,112,88,94.088,88,72z"/> <g> <path style="fill:#C9F4F3;" d="M32,112c-8.84,0-16,7.16-16,16s7.16,16,16,16h16v-32H32z"/> <path style="fill:#C9F4F3;" d="M152,224c13.256,0,24-10.744,24-24c-13.256,0-24-10.744-24-24v-8h24v-24h24l-24-96H88v24 c0,22.088-17.912,40-40,40v32v56c0,13.256,10.744,24,24,24h8h64H152z M115.032,92c9.384,9.376,24.56,9.376,33.944,0 C139.592,101.376,124.408,101.376,115.032,92z"/> <polygon style="fill:#C9F4F3;" points="120,288 128,344 152,296 128,280 "/> </g> <path style="fill:#9C32BF;" d="M96,344l-24-48l-23.664-47.328C25.48,252.344,8,272.104,8,296v176h104v-96L96,344z"/> <g> <path style="fill:#C9F4F3;" d="M96,280l16-16l-32-16H56c-2.616,0-5.16,0.264-7.664,0.672L72,296L96,280z"/> <polygon style="fill:#C9F4F3;" points="144,248 144,224 80,224 80,248 112,264 "/> </g> <polygon style="fill:#4BDDDD;" points="112,296 104,288 96,344 112,376 128,344 120,288 "/> <g> <polygon style="fill:#C9F4F3;" points="128,280 152,296 176,248 144,248 112,264 "/> <polygon style="fill:#C9F4F3;" points="96,280 72,296 96,344 104,288 "/> </g> <path style="fill:#B139D8;" d="M280,320l-49.68-55.888C221.208,253.864,208.152,248,194.448,248H176l-24,48l-24,48l-16,32v96h112 V344l28.912,30.976C282.632,406.824,336,385.792,336,342.224V256h-56V320z M152,360h48H152z"/> <polygon style="fill:#4BDDDD;" points="112,296 120,288 128,280 112,264 96,280 104,288 "/> <polygon style="fill:#FFC931;" points="336,192 336,224 472,280 472,112 336,168 "/> <polygon style="fill:#E6B52C;" points="472,280 336,224 280,224 280,192 336,192 472,192 "/> <polygon style="fill:#C9F4F3;" points="304,192 296,224 280,224 280,256 336,256 336,224 336,192 "/> <g> <path style="fill:#2A0E54;" d="M154.624,97.656l-11.312-11.312c-6.24,6.232-16.384,6.232-22.624,0l-11.312,11.312 c6.24,6.24,14.432,9.36,22.624,9.36S148.384,103.896,154.624,97.656z"/> <path style="fill:#2A0E54;" d="M476.456,105.352c-2.224-1.488-5.032-1.76-7.504-0.752l-132.896,54.72l-52.904-22.672 c-2.464-1.048-5.312-0.8-7.552,0.672c-2.248,1.48-3.6,3.992-3.6,6.68v80v74.96l-35.696-40.168 C225.68,246.848,210.424,240,194.448,240H152v-8c17.648,0,32-14.352,32-32c0-4.416-3.584-8-8-8c-8.824,0-16-7.176-16-16h16 c4.416,0,8-3.584,8-8v-16h16c2.464,0,4.792-1.136,6.304-3.08s2.056-4.472,1.456-6.864l-21.776-87.12 C207.672,50.336,224,31.048,224,8c0-4.416-3.584-8-8-8H64C41.944,0,24,17.944,24,40v65.472C14.712,108.784,8,117.584,8,128 c0,13.232,10.768,24,24,24h8v48c0,17.648,14.352,32,32,32v8H56c-30.88,0-56,25.12-56,56v176c0,4.416,3.584,8,8,8h216 c4.416,0,8-3.584,8-8V364.296l15.064,16.136c16.04,17.192,39.6,22.496,61.472,13.896C330.408,385.696,344,365.736,344,342.224 v-106.28l124.952,51.448C469.936,287.8,470.968,288,472,288c1.56,0,3.112-0.456,4.456-1.352C478.664,285.16,480,282.664,480,280 V112C480,109.336,478.664,106.84,476.456,105.352z M328,224v24h-40v-16h8c3.672,0,6.872-2.496,7.76-6.056L310.248,200H328V224z M328,173.272V184h-24c-3.672,0-6.872,2.496-7.76,6.056L289.752,216H288v-59.864L328,173.272z M163.056,256l-14.16,28.32 l-15.8-10.536l-7.592-7.592L145.888,256H163.056z M107.312,280l4.688-4.688l4.688,4.688L112,284.688L107.312,280z M94.984,290.296 l0.536,0.536l-3.816,26.688l-9.392-18.776L94.984,290.296z M112,358.112l-7.728-15.456l5.584-39.072 c0.704,0.2,1.416,0.416,2.144,0.416s1.44-0.216,2.144-0.416l5.584,39.072L112,358.112z M132.296,317.52l-3.816-26.688l0.536-0.536 l12.664,8.448L132.296,317.52z M40,40c0-13.232,10.768-24,24-24h142.992C203.424,29.784,190.88,40,176,40H88c-4.416,0-8,3.584-8,8 v24c0,17.648-14.352,32-32,32h-8V40z M32,136c-4.408,0-8-3.592-8-8s3.592-8,8-8h8v16H32z M56,200v-56v-24.664 c0.176-0.032,0.328-0.104,0.504-0.128c2.456-0.44,4.848-1.072,7.16-1.88c0.4-0.136,0.784-0.288,1.176-0.432 c2.304-0.872,4.536-1.888,6.664-3.08c0.288-0.16,0.552-0.344,0.832-0.504c2.192-1.296,4.304-2.728,6.256-4.344 c0.032-0.032,0.064-0.064,0.104-0.088c1.952-1.624,3.744-3.432,5.416-5.344c0.176-0.2,0.368-0.392,0.544-0.6 c1.576-1.864,2.984-3.872,4.264-5.96c0.208-0.344,0.424-0.688,0.632-1.04c1.208-2.088,2.256-4.264,3.136-6.536 c0.152-0.392,0.296-0.792,0.44-1.192c0.84-2.328,1.528-4.72,2-7.192c0.064-0.312,0.088-0.64,0.144-0.96 C95.712,77.432,96,74.752,96,72V56h73.752l20,80H176c-4.416,0-8,3.584-8,8v16h-16c-4.416,0-8,3.584-8,8v8 c0,14.368,9.52,26.552,22.584,30.584C164.064,212.136,158.48,216,152,216h-8H80h-8C63.176,216,56,208.824,56,200z M136,232v11.056 l-24,12l-24-12V232H136z M78.112,256l20.384,10.192l-7.592,7.592l-15.8,10.536L60.944,256H78.112z M16,296 c0-17.872,11.864-32.864,28.064-37.976L104,377.888V464H16V296z M302.664,379.44c-12.248,4.832-30.216,4.752-43.912-9.92 l-28.912-30.976c-2.24-2.408-5.72-3.184-8.784-1.984c-3.048,1.2-5.056,4.152-5.056,7.44v120h-96v-86.112L180.944,256h13.504 c11.416,0,22.312,4.896,29.896,13.424l49.68,55.888c2.216,2.488,5.72,3.336,8.824,2.16C285.952,326.296,288,323.32,288,320v-56h40 v78.224C328,362.304,314.912,374.608,302.664,379.44z M464,268.056L344,218.64V192v-18.64l120-49.416V268.056z"/> <rect x="384" y="24" style="fill:#2A0E54;" width="16" height="64"/> <rect x="412.708" y="55.988" transform="matrix(-0.6402 0.7682 -0.7682 -0.6402 777.3212 -236.0896)" style="fill:#2A0E54;" width="62.48" height="16"/> <rect x="331.991" y="32.753" transform="matrix(-0.7682 0.6402 -0.6402 -0.7682 642.1425 -104.5114)" style="fill:#2A0E54;" width="16" height="62.48"/> <rect x="152" y="352" style="fill:#2A0E54;" width="48" height="16"/> </g></svg>