<svg height="496pt" viewBox="0 0 496 496" width="496pt" xmlns="http://www.w3.org/2000/svg"><path d="m24 248 24 176h288l32-176zm0 0" fill="#e6e9ed"/><path d="m24 248 2.183594 16h341.816406v-16zm0 0" fill="#ccd1d9"/><path d="m376 248h-360c-4.414062 0-8-3.585938-8-8v-32c0-4.414062 3.585938-8 8-8h360zm0 0" fill="#ff826e"/><path d="m345.023438 248h30.976562v-48h-23.777344zm0 0" fill="#fc6e51"/><path d="m471.359375 8c-4.6875 0-9.160156 1.976562-12.3125 5.449219l-75.046875 82.550781-48 320v8h32l8.398438-48 39.601562-264 67.726562-75.257812c2.753907-3.054688 4.273438-7.015626 4.273438-11.125v-.976563c0-9.191406-7.449219-16.640625-16.640625-16.640625zm0 0" fill="#ff826e"/><path d="m344.398438 360-8.398438 56v8h32l8.398438-48 2.402343-16zm0 0" fill="#fc6e51"/><path d="m392 416v-32c0-4.414062-3.585938-8-8-8h-42l-6 40v8h48c4.414062 0 8-3.585938 8-8zm0 0" fill="#ff826e"/><path d="m136 440c0 26.507812-21.492188 48-48 48s-48-21.492188-48-48 21.492188-48 48-48 48 21.492188 48 48zm0 0" fill="#656d78"/><path d="m104 440c0 8.835938-7.164062 16-16 16s-16-7.164062-16-16 7.164062-16 16-16 16 7.164062 16 16zm0 0" fill="#969faa"/><path d="m344 440c0 26.507812-21.492188 48-48 48s-48-21.492188-48-48 21.492188-48 48-48 48 21.492188 48 48zm0 0" fill="#656d78"/><path d="m312 440c0 8.835938-7.164062 16-16 16s-16-7.164062-16-16 7.164062-16 16-16 16 7.164062 16 16zm0 0" fill="#969faa"/><path d="m488 25.617188v-.976563c0-9.191406-7.449219-16.640625-16.640625-16.640625-4.6875 0-9.160156 1.976562-12.3125 5.449219l-75.046875 82.550781 32 16 67.726562-75.257812c2.753907-3.054688 4.273438-7.015626 4.273438-11.125zm0 0" fill="#fcd770"/><path d="m56 56h272v144h-272zm0 0" fill="#dfb28b"/><path d="m144 56h96v64h-96zm0 0" fill="#cf9e76"/><path d="m56 184h272v16h-272zm0 0" fill="#cf9e76"/><path d="m471.359375 0c-6.917969 0-13.566406 2.9375-18.230469 8.0625l-76.679687 84.351562-14.9375 99.585938h-25.511719v-144h-288v144h-32c-8.824219 0-16 7.175781-16 16v32c0 8.824219 7.175781 16 16 16h1.015625l21.519531 157.808594c-4.160156 7.824218-6.535156 16.726562-6.535156 26.191406 0 30.878906 25.121094 56 56 56s56-25.121094 56-56c0-2.71875-.265625-5.375-.640625-8h97.28125c-.375 2.625-.640625 5.28125-.640625 8 0 30.878906 25.121094 56 56 56s56-25.121094 56-56c0-2.71875-.265625-5.375-.640625-8h32.640625c8.824219 0 16-7.175781 16-16v-32c0-8.382812-6.503906-15.199219-14.710938-15.871094l38.261719-252.5625 66.128907-73.476562c4.074218-4.53125 6.320312-10.386719 6.320312-16.472656v-.976563c0-13.585937-11.054688-24.640625-24.640625-24.640625zm-81.078125 108.078125 16.941406 8.472656-38.101562 251.449219h-17.832032zm-305.617188 276.089844c-12.222656.726562-23.417968 5.320312-32.296874 12.664062l-6.792969-49.792969 22.425781-29.015624 33.886719 43.855468zm259.503907-76.558594-2.054688-2.664063 3.046875-3.945312zm5.863281-39.089844-18.03125 23.335938-27.703125-35.855469h47.613281zm-106.03125 137.214844-33.886719-43.855469 33.886719-43.855468 33.886719 43.855468zm-44-56.933594-33.886719-43.855469 33.886719-43.855468 33.886719 43.855468zm54.113281-43.855469 33.886719-43.855468 33.886719 43.855468-33.886719 43.855469zm-10.113281-13.089843-27.703125-35.855469h55.414063zm-88 0-27.703125-35.855469h55.414063zm-98.113281 13.089843-15.34375 19.855469-6.574219-48.226562zm-17.589844-48.945312h55.414063l-27.710938 35.855469zm37.816406 48.945312 33.886719-43.855468 33.886719 43.855468-33.886719 43.855469zm77.886719 13.078126 33.886719 43.855468-33.886719 43.855469-33.886719-43.855469zm44 56.945312 31.703125 41.03125h-63.414063zm88 0 7.015625 9.078125c-5.589844.097656-10.984375.992187-16.0625 2.625zm31.097656 14.078125-20.992187-27.160156 33.886719-43.855469 8.878906 11.496094-10.007813 66.738281c-3.582031-2.875-7.535156-5.296875-11.765625-7.21875zm-119.097656-309.046875v32h-16v-32h-16v32h-16v-48h80v48h-16v-32zm-136-16h72v64h112v-64h72v128h-256zm-48 144h343.113281l-4.800781 32h-338.3125zm72 272c-22.054688 0-40-17.945312-40-40s17.945312-40 40-40 40 17.945312 40 40-17.945312 40-40 40zm15.328125-93.816406 8.671875-11.214844 31.703125 41.03125h-5.183594c-6.855469-14.375-19.632812-25.375-35.191406-29.816406zm192.671875 93.816406c-22.054688 0-40-17.945312-40-40s17.945312-40 40-40 40 17.945312 40 40-17.945312 40-40 40zm88-64h-37.480469c-.589843-1.238281-1.207031-2.464844-1.886719-3.648438l4.253907-28.351562h35.113281zm96-390.382812c0 2.136718-.792969 4.191406-2.214844 5.78125l-63.65625 70.730468-17.105468-8.554687 67.945312-74.734375c1.632812-1.808594 3.960938-2.839844 6.390625-2.839844 4.769531 0 8.640625 3.871094 8.640625 8.640625zm0 0"/><path d="m88 416c-13.230469 0-24 10.769531-24 24s10.769531 24 24 24 24-10.769531 24-24-10.769531-24-24-24zm0 32c-4.40625 0-8-3.59375-8-8s3.59375-8 8-8 8 3.59375 8 8-3.59375 8-8 8zm0 0"/><path d="m296 416c-13.230469 0-24 10.769531-24 24s10.769531 24 24 24 24-10.769531 24-24-10.769531-24-24-24zm0 32c-4.40625 0-8-3.59375-8-8s3.59375-8 8-8 8 3.59375 8 8-3.59375 8-8 8zm0 0"/><path d="m80 160h16v16h-16zm0 0"/><path d="m112 160h16v16h-16zm0 0"/><path d="m144 160h16v16h-16zm0 0"/></svg>