<svg viewBox="1 -56 511.99971 511" xmlns="http://www.w3.org/2000/svg"><path d="m429.875 110.382812h-419.886719v259.226563c0 11.269531 9.210938 20.480469 20.480469 20.480469h378.929688c11.265624 0 20.476562-9.210938 20.476562-20.480469zm0 0" fill="#f7f7f7"/><path d="m429.875 30.96875v79.414062h-419.886719v-79.414062c0-11.269531 9.210938-20.480469 20.480469-20.480469h378.929688c11.265624 0 20.476562 9.210938 20.476562 20.480469zm0 0" fill="#bdf9ff"/><path d="m49.617188 150.339844h199.789062v119.875h-199.789062zm0 0" fill="#ffa3bf"/><path d="m320.140625 299.433594c-2.238281 6.265625 3.796875 12.308594 10.058594 10.078125l45.085937-16.070313c1.6875-.558594 3.292969-1.308594 4.804688-2.230468 1.597656-.957032 3.074218-2.125 4.402344-3.453126l4.097656-4.097656v65.800782h-98.894532v-199.121094h98.894532v48.28125l-46.671875 46.671875c-1.308594 1.308593-2.457031 2.765625-3.414063 4.332031-.910156 1.488281-1.660156 3.078125-2.21875 4.738281zm0 0" fill="#7df5a5"/><path d="m493.339844 178.910156-108.847656 108.847656c-1.328126 1.328126-2.804688 2.496094-4.402344 3.453126l-20.660156-20.65625h-.007813l-20.917969-20.929688c.957032-1.566406 2.105469-3.023438 3.414063-4.332031l87.957031-87.957031 20.9375-20.941407zm0 0" fill="#ffc954"/><path d="m380.089844 291.210938c-1.511719.921874-3.117188 1.671874-4.804688 2.230468l-45.085937 16.070313c-6.261719 2.230469-12.296875-3.8125-10.058594-10.078125l16.144531-45.070313c.558594-1.660156 1.308594-3.25 2.21875-4.738281l20.917969 20.929688h.007813zm0 0" fill="#fade76"/><path d="m493.339844 178.910156-42.527344-42.515625c11.589844-11.585937 30.378906-11.585937 41.964844 0l.5625.550781c11.585937 11.589844 11.585937 30.378907 0 41.964844zm0 0" fill="#f9b"/><path d="m190.796875 70.757812h197.792969c5.515625 0 9.988281-4.46875 9.988281-9.988281 0-5.515625-4.472656-9.988281-9.988281-9.988281h-197.792969c-5.515625 0-9.988281 4.472656-9.988281 9.988281 0 5.519531 4.472656 9.988281 9.988281 9.988281zm0 0"/><path d="m51.046875 64.59375c.25.597656.558594 1.175781.917969 1.714844.359375.550781.78125 1.0625 1.238281 1.519531.460937.46875.980469.878906 1.519531 1.25.550782.359375 1.128906.667969 1.726563.917969.601562.25 1.230469.441406 1.871093.570312.636719.128906 1.296876.1875 1.945313.1875.660156 0 1.308594-.058594 1.957031-.1875.640625-.128906 1.269532-.320312 1.871094-.570312.597656-.25 1.175781-.558594 1.714844-.917969.550781-.371094 1.0625-.78125 1.53125-1.25.457031-.457031.867187-.96875 1.238281-1.519531.359375-.539063.667969-1.117188.917969-1.714844.25-.609375.441406-1.242188.570312-1.871094.128906-.648437.1875-1.308594.1875-1.957031s-.058594-1.308594-.1875-1.949219c-.128906-.636718-.320312-1.265625-.570312-1.867187-.25-.609375-.558594-1.1875-.917969-1.726563-.371094-.550781-.78125-1.058594-1.238281-1.519531-.46875-.460937-.980469-.878906-1.53125-1.238281-.539063-.359375-1.117188-.667969-1.714844-.917969-.601562-.25-1.230469-.441406-1.871094-.570313-1.285156-.261718-2.617187-.261718-3.902344 0-.640624.128907-1.269531.320313-1.871093.570313-.597657.25-1.175781.558594-1.726563.917969-.539062.359375-1.058594.777344-1.519531 1.238281-.457031.460937-.878906.96875-1.238281 1.519531-.359375.539063-.667969 1.117188-.917969 1.726563-.25.601562-.441406 1.230469-.570313 1.867187-.128906.640625-.199218 1.300782-.199218 1.949219s.070312 1.308594.199218 1.957031c.128907.628906.320313 1.261719.570313 1.871094zm0 0"/><path d="m91.003906 64.59375c.25.597656.558594 1.175781.917969 1.714844.359375.550781.78125 1.0625 1.238281 1.519531.460938.46875.96875.878906 1.519532 1.25.539062.359375 1.128906.667969 1.726562.917969.601562.25 1.230469.441406 1.871094.570312.636718.128906 1.296875.1875 1.945312.1875.652344 0 1.308594-.058594 1.960938-.1875.628906-.128906 1.257812-.320312 1.867187-.570312.597657-.25 1.179688-.558594 1.71875-.917969.546875-.371094 1.058594-.78125 1.515625-1.25.472656-.457031.878906-.96875 1.25-1.519531.359375-.539063.667969-1.117188.917969-1.714844.25-.609375.441406-1.242188.570313-1.871094.128906-.648437.191406-1.308594.191406-1.957031s-.0625-1.308594-.191406-1.949219c-.128907-.636718-.320313-1.265625-.570313-1.867187-.25-.597657-.558594-1.179688-.917969-1.726563-.371094-.550781-.777344-1.058594-1.25-1.519531-.457031-.460937-.96875-.878906-1.515625-1.238281-.539062-.359375-1.121093-.667969-1.71875-.917969-.609375-.25-1.238281-.441406-1.867187-.570313-1.289063-.261718-2.617188-.261718-3.90625 0-.640625.128907-1.269532.320313-1.871094.570313-.597656.25-1.1875.558594-1.726562.917969-.550782.359375-1.058594.777344-1.519532 1.238281-.457031.460937-.878906.96875-1.238281 1.519531-.359375.546875-.667969 1.128906-.917969 1.726563-.25.601562-.441406 1.230469-.570312 1.867187-.128906.640625-.199219 1.300782-.199219 1.949219s.070313 1.308594.199219 1.957031c.128906.628906.320312 1.261719.570312 1.871094zm0 0"/><path d="m130.960938 64.59375c.25.597656.558593 1.175781.917968 1.726562.363282.539063.78125 1.050782 1.242188 1.519532.457031.457031.96875.867187 1.515625 1.238281.539062.359375 1.128906.667969 1.730469.917969.597656.25 1.226562.441406 1.867187.570312s1.296875.1875 1.949219.1875c.648437 0 1.308594-.058594 1.957031-.1875.628906-.128906 1.257813-.320312 1.867187-.570312.597657-.25 1.179688-.558594 1.71875-.917969.550782-.371094 1.058594-.78125 1.519532-1.238281.46875-.46875.878906-.980469 1.246094-1.519532.359374-.550781.671874-1.128906.921874-1.726562.246094-.601562.4375-1.230469.566407-1.871094.132812-.648437.191406-1.296875.191406-1.957031 0-.648437-.058594-1.308594-.191406-1.949219-.128907-.636718-.320313-1.265625-.566407-1.867187-.25-.597657-.5625-1.1875-.921874-1.726563-.367188-.550781-.777344-1.058594-1.246094-1.519531-.460938-.460937-.96875-.878906-1.519532-1.238281-.539062-.359375-1.121093-.667969-1.71875-.917969-.609374-.25-1.238281-.441406-1.867187-.570313-1.289063-.261718-2.617187-.261718-3.90625 0-.640625.128907-1.269531.320313-1.867187.570313-.601563.25-1.191407.558594-1.730469.917969-.546875.359375-1.058594.777344-1.515625 1.238281-.460938.460937-.878906.96875-1.242188 1.519531-.359375.539063-.667968 1.128906-.917968 1.726563-.25.601562-.4375 1.230469-.570313 1.867187-.128906.640625-.199219 1.300782-.199219 1.949219 0 .660156.070313 1.308594.199219 1.957031.132813.640625.320313 1.269532.570313 1.871094zm0 0"/><path d="m249.402344 300.183594h-19.976563c-5.519531 0-9.992187 4.472656-9.992187 9.988281 0 5.519531 4.472656 9.988281 9.992187 9.988281h19.976563c5.519531 0 9.992187-4.46875 9.992187-9.988281 0-5.515625-4.476562-9.988281-9.992187-9.988281zm0 0"/><path d="m49.613281 320.160156h99.894531c5.519532 0 9.992188-4.46875 9.992188-9.988281 0-5.515625-4.472656-9.988281-9.992188-9.988281h-99.894531c-5.515625 0-9.988281 4.472656-9.988281 9.988281 0 5.519531 4.472656 9.988281 9.988281 9.988281zm0 0"/><path d="m249.402344 340.140625h-199.789063c-5.515625 0-9.988281 4.472656-9.988281 9.988281 0 5.519532 4.472656 9.992188 9.988281 9.992188h199.789063c5.519531 0 9.992187-4.472656 9.992187-9.992188 0-5.515625-4.476562-9.988281-9.992187-9.988281zm0 0"/><path d="m259.351562 149.554688c-.007812-.132813-.019531-.261719-.035156-.394532-.019531-.1875-.050781-.375-.085937-.5625-.023438-.144531-.050781-.289062-.082031-.433594-.035157-.160156-.082032-.324218-.125-.484374-.046876-.164063-.089844-.328126-.144532-.488282-.046875-.136718-.097656-.273437-.148437-.40625-.070313-.183594-.140625-.359375-.21875-.535156-.054688-.117188-.113281-.230469-.167969-.347656-.09375-.1875-.191406-.367188-.292969-.542969-.027343-.050781-.050781-.105469-.082031-.15625-.039062-.0625-.082031-.117187-.121094-.179687-.105468-.164063-.210937-.324219-.324218-.484376-.085938-.125-.175782-.242187-.269532-.363281-.101562-.128906-.207031-.253906-.3125-.378906-.117187-.128906-.230468-.257813-.351562-.382813-.097656-.101562-.199219-.199218-.300782-.300781-.136718-.125-.273437-.25-.414062-.371093-.101562-.089844-.210938-.171876-.316406-.257813-.144532-.113281-.289063-.222656-.4375-.328125-.121094-.085938-.246094-.164062-.371094-.242188-.140625-.089843-.28125-.175781-.429688-.257812-.144531-.085938-.292968-.160156-.441406-.234375-.132812-.066406-.265625-.132813-.398437-.191406-.167969-.074219-.335938-.144531-.507813-.207031-.125-.050782-.253906-.097657-.386718-.144532-.171876-.054687-.347657-.109375-.527344-.15625-.136719-.039062-.277344-.074218-.417969-.109375-.164063-.039062-.332031-.070312-.5-.097656-.164063-.03125-.328125-.058594-.496094-.078125-.144531-.015625-.292969-.03125-.4375-.042969-.199219-.015625-.398437-.027343-.597656-.03125-.070313 0-.136719-.007812-.207031-.007812h-199.789063c-.078125 0-.152343.007812-.226562.007812-.191407.007813-.375.015625-.5625.03125-.160157.011719-.316407.027344-.46875.046875-.15625.019532-.3125.042969-.464844.070313-.179687.03125-.355469.066406-.53125.105469-.132813.03125-.261719.066406-.390625.101562-.183594.050781-.371094.105469-.554688.164062-.121093.042969-.238281.085938-.359374.132813-.179688.070313-.355469.136719-.527344.21875-.128906.054687-.253906.117187-.378906.179687-.15625.078126-.3125.160157-.460938.246094-.144531.078125-.28125.164063-.417969.25-.125.082032-.253906.164063-.378906.25-.148437.101563-.289063.210938-.433594.324219-.109375.085937-.214843.171875-.320312.257813-.140625.121093-.273438.246093-.410157.371093-.101562.101563-.203124.199219-.300781.300781-.121093.125-.238281.253907-.351562.382813-.105469.125-.210938.25-.3125.378906-.09375.121094-.183594.238281-.273438.363281-.109375.15625-.21875.316407-.320312.484376-.039063.0625-.085938.117187-.125.179687-.027344.050781-.050781.105469-.082031.15625-.101563.175781-.195313.359375-.289063.542969-.058594.117187-.117187.230468-.167969.347656-.078125.175781-.152344.355469-.21875.535156-.050781.132813-.105468.269532-.148437.40625-.054688.160156-.101563.324219-.144531.488282-.046876.160156-.089844.324218-.125.484374-.035157.144532-.058594.289063-.085938.433594-.03125.1875-.0625.375-.085938.5625-.015624.128906-.023437.261719-.035156.394532-.015625.203124-.027344.40625-.03125.609374 0 .058594-.007812.117188-.007812.175782v119.875c0 .0625.007812.117187.007812.179687.003906.199219.015625.402344.03125.605469.011719.132812.023438.265625.035156.398438.023438.1875.054688.371093.085938.558593.027344.144531.054688.289063.085938.433594.035156.164063.078124.324219.125.488281.042968.160156.089843.324219.144531.484375.042969.136719.097656.273438.148437.410157.070313.179687.140625.355468.21875.53125.050782.117187.109375.234374.167969.351562.09375.183594.1875.363281.289063.542969.03125.050781.050781.101562.082031.152343.03125.046876.066406.085938.09375.132813.175781.285156.367187.558594.570312.824219.050781.066406.097657.132812.148438.199218.242187.296876.496093.574219.765625.839844.09375.089844.1875.171875.28125.253906.195312.179688.398437.351563.609375.511719.105469.085938.214843.167969.328125.246094.25.179687.511718.34375.777344.5.0625.035156.117187.074219.179687.109375.339844.1875.691406.351562 1.054687.5.070313.027344.140626.050781.210938.078125.292969.109375.59375.207031.902344.292969.101562.027344.203125.054687.304687.078125.285157.070312.574219.125.867188.167969.105469.015624.207031.035156.3125.046874.359375.042969.722656.066407 1.09375.070313.027343 0 .050781.003906.074219.003906h.023437 199.726563.019531c.027343 0 .050781-.003906.078125-.003906.371094-.003906.734375-.027344 1.09375-.070313.105468-.011718.207031-.03125.3125-.046874.292968-.046876.582031-.097657.867187-.167969.101563-.023438.203125-.050781.304688-.078125.304687-.085938.605469-.183594.898437-.292969.070313-.027344.144532-.050781.214844-.078125.359375-.148438.714844-.3125 1.054688-.5.058593-.03125.121093-.074219.179687-.109375.265625-.15625.527344-.320313.777344-.496094.109375-.082031.222656-.164062.332031-.25.207031-.160156.40625-.332031.601562-.507812.097657-.085938.191407-.167969.285157-.257813.269531-.265625.527343-.542968.765625-.835937.050781-.066407.097656-.136719.152344-.203125.203124-.265625.390624-.539063.566406-.820313.03125-.046875.0625-.085937.09375-.132812.027344-.050781.050781-.105469.082031-.15625.101563-.175781.195313-.359375.289063-.542969.058593-.117188.117187-.230469.167968-.351562.078125-.171876.152344-.351563.21875-.53125.050782-.132813.105469-.269532.148438-.40625.054687-.160157.101562-.324219.144531-.488282.046875-.160156.089844-.324218.125-.484375.035156-.144531.058594-.289062.085937-.433593.03125-.1875.0625-.375.085938-.5625.015625-.128907.023438-.261719.035156-.394532.015625-.203125.027344-.40625.03125-.609375 0-.058593.007813-.117187.007813-.175781v-119.875c0-.0625-.007813-.117188-.007813-.179688 0-.203124-.011718-.40625-.027344-.609374zm-199.746093 18.429687 70.488281 42.292969-70.488281 42.292968zm26.074219-7.652344h127.65625l-63.828126 38.296875zm63.828124 61.597657 63.832032 38.296874h-127.660156zm19.417969-11.652344 70.488281-42.292969v84.589844zm0 0"/><path d="m500.402344 185.980469c15.464844-15.464844 15.464844-40.628907 0-56.09375l-.554688-.554688c-15.453125-15.453125-40.59375-15.464843-56.0625-.035156-.011718.015625-.023437.023437-.035156.035156l-3.886719 3.886719v-102.25c0-16.800781-13.667969-30.46875-30.46875-30.46875h-378.925781c-16.800781 0-30.46875 13.667969-30.46875 30.46875v338.640625c0 16.800781 13.667969 30.46875 30.46875 30.46875h378.929688c16.800781 0 30.464843-13.667969 30.464843-30.46875v-123.097656l60.519531-60.515625c.003907-.003906.011719-.011719.019532-.015625zm-14.683594-42.523438.554688.558594c5.09375 5.09375 6.785156 12.304687 5.117187 18.824219l-24.503906-24.496094c6.523437-1.671875 13.738281.019531 18.832031 5.113281zm-455.25-122.976562h378.929688c5.78125 0 10.488281 4.703125 10.488281 10.488281v69.425781h-399.90625v-69.425781c0-5.785156 4.703125-10.488281 10.488281-10.488281zm389.417969 349.128906c0 5.785156-4.707031 10.488281-10.488281 10.488281h-378.929688c-5.785156 0-10.488281-4.703125-10.488281-10.488281v-249.234375h399.90625v32.820312l-21.308594 21.308594v-24.164062c0-5.515625-4.472656-9.988282-9.988281-9.988282h-98.894532c-5.519531 0-9.992187 4.472657-9.992187 9.988282v199.121094c0 5.515624 4.472656 9.988281 9.992187 9.988281h98.894532c5.515625 0 9.988281-4.472657 9.988281-9.988281v-61.664063l21.308594-21.304687zm-85.03125-131.382813c-1.863281 1.863282-3.503907 3.945313-4.878907 6.191407v.003906c-1.289062 2.109375-2.339843 4.34375-3.125 6.648437l-16.117187 45.003907c-2.347656 6.566406-.742187 13.710937 4.183594 18.644531 3.429687 3.433594 7.933593 5.257812 12.574219 5.257812 2.023437 0 4.070312-.34375 6.0625-1.054687l44.988281-16.039063c.019531-.007812.039062-.015624.058593-.019531v36.609375h-78.917968v-179.140625h78.917968v34.152344zm7.347656 29.234376 10.152344 10.15625c.089843.089843.179687.179687.273437.265624l9.605469 9.605469-31.183594 11.117188zm80.609375-32.152344c0 .003906 0 .003906-.003906.003906l-41.28125 41.285156c-.003906 0-.003906 0-.003906 0l-.960938.960938-7.011719-7.011719 52.121094-52.117187c3.898437-3.902344 3.898437-10.226563 0-14.128907-3.902344-3.898437-10.226563-3.898437-14.128906 0l-52.121094 52.125-7.253906-7.257812 84.769531-84.769531s.003906-.003907.003906-.003907l13.875-13.875 28.394532 28.390625zm0 0"/><path d="m181.5 316.046875c.359375.550781.777344 1.058594 1.238281 1.519531.457031.46875.96875.878906 1.515625 1.246094.539063.359375 1.121094.671875 1.730469.921875.597656.246094 1.226563.4375 1.867187.566406.640626.132813 1.296876.191407 1.949219.191407 2.625 0 5.203125-1.058594 7.0625-2.925782.457031-.460937.878907-.96875 1.238281-1.519531.359376-.539063.667969-1.121094.917969-1.71875.25-.609375.449219-1.238281.578125-1.867187.132813-.648438.191406-1.308594.191406-1.957032 0-.652344-.058593-1.308594-.191406-1.949218-.128906-.640626-.328125-1.269532-.578125-1.867188-.25-.609375-.558593-1.191406-.917969-1.730469-.359374-.546875-.78125-1.058593-1.238281-1.515625-2.320312-2.320312-5.765625-3.378906-9.011719-2.730468-.640624.132812-1.269531.320312-1.867187.570312-.609375.25-1.191406.558594-1.730469.917969-.546875.363281-1.058594.78125-1.515625 1.242187-.460937.457032-.878906.96875-1.238281 1.515625-.371094.539063-.671875 1.121094-.921875 1.730469-.25.597656-.449219 1.226562-.566406 1.867188-.132813.640624-.203125 1.296874-.203125 1.949218 0 .648438.070312 1.308594.203125 1.957032.117187.628906.316406 1.257812.566406 1.867187.25.597656.550781 1.179687.921875 1.71875zm0 0"/></svg>