<svg height="496pt" viewBox="0 0 496 496" width="496pt" xmlns="http://www.w3.org/2000/svg"><path d="m249.425781 110.457031c-15.777343-4.191406-32.328125-6.457031-49.425781-6.457031-106.039062 0-192 85.960938-192 192s85.960938 192 192 192 192-85.960938 192-192c0-17.097656-2.265625-33.648438-6.457031-49.425781zm0 0" fill="#ff826e"/><path d="m388.929688 262.214844c-.945313-5.277344-2.027344-10.511719-3.386719-15.640625l-136.117188-136.117188c-5.128906-1.359375-10.363281-2.441406-15.640625-3.386719-1.066406 6.839844-1.785156 13.792969-1.785156 20.929688 0 74.992188 61.007812 136 136 136 7.136719 0 14.089844-.71875 20.929688-1.785156zm0 0" fill="#fc6e51"/><path d="m249.152344 143.769531c-15.496094-5-32-7.769531-49.152344-7.769531-88.367188 0-160 71.632812-160 160s71.632812 160 160 160 160-71.632812 160-160c0-17.160156-2.769531-33.65625-7.777344-49.160156zm0 0" fill="#f5f7fa"/><path d="m232.574219 139.480469c5.546875 65.832031 58.113281 118.390625 123.929687 123.933593-1.167968-5.621093-2.535156-11.175781-4.28125-16.574218l-103.070312-103.070313c-5.390625-1.746093-10.953125-3.105469-16.578125-4.289062zm0 0" fill="#e6e9ed"/><g fill="#fcd770"><path d="m488 128c0 66.273438-53.726562 120-120 120s-120-53.726562-120-120 53.726562-120 120-120 120 53.726562 120 120zm0 0"/><path d="m216 296c0 8.835938-7.164062 16-16 16s-16-7.164062-16-16 7.164062-16 16-16 16 7.164062 16 16zm0 0"/><path d="m456 296c0 8.835938-7.164062 16-16 16s-16-7.164062-16-16 7.164062-16 16-16 16 7.164062 16 16zm0 0"/><path d="m216 56c0 8.835938-7.164062 16-16 16s-16-7.164062-16-16 7.164062-16 16-16 16 7.164062 16 16zm0 0"/></g><path d="m360 168h-53.367188l44.457032-50.816406c5.742187-6.558594 8.910156-14.984375 8.910156-23.703125v-1.480469c0-19.847656-16.152344-36-36-36s-36 16.152344-36 36v12h16v-12c0-11.03125 8.96875-20 20-20s20 8.96875 20 20v1.480469c0 4.847656-1.761719 9.519531-4.953125 13.167969l-51.046875 58.34375v19.007812h72zm0 0"/><path d="m424 184h16v-24h16v-16h-16v-88h-20.945312l-43.054688 86.113281v17.886719h48zm-31.054688-40 31.054688-62.113281v62.113281zm0 0"/><path d="m395.238281 253.015625c57.53125-12.527344 100.761719-63.792969 100.761719-125.015625 0-70.574219-57.425781-128-128-128-61.222656 0-112.488281 43.230469-125.015625 100.761719-14.121094-3.105469-28.527344-4.761719-42.984375-4.761719-110.28125 0-200 89.71875-200 200s89.71875 200 200 200 200-89.71875 200-200c0-14.457031-1.65625-28.863281-4.761719-42.984375zm-27.238281-237.015625c61.761719 0 112 50.238281 112 112s-50.238281 112-112 112-112-50.238281-112-112 50.238281-112 112-112zm-16.3125 272h-15.6875v16h15.59375c-1.882812 35.871094-16.195312 68.425781-38.777344 93.503906l-11-11-11.3125 11.3125 11 11c-25.078125 22.589844-57.632812 36.894532-93.503906 38.777344v-15.59375h-16v15.59375c-35.871094-1.882812-68.425781-16.195312-93.503906-38.777344l11-11-11.3125-11.3125-11 11c-22.589844-25.078125-36.894532-57.632812-38.777344-93.503906h15.59375v-16h-15.59375c1.882812-35.871094 16.195312-68.425781 38.777344-93.503906l11 11 11.3125-11.3125-11-11c25.078125-22.589844 57.632812-36.894532 93.503906-38.777344v15.59375h16v-15.6875c11.503906.609375 22.894531 2.542969 34.039062 5.757812 9.25 52.890626 50.992188 94.632813 103.882813 103.890626 3.214844 11.144531 5.148437 22.535156 5.765625 34.039062zm-151.6875 192c-101.464844 0-184-82.535156-184-184s82.535156-184 184-184c13.648438 0 27.257812 1.609375 40.574219 4.617188-.335938 3.757812-.574219 7.542968-.574219 11.382812 0 1.671875.183594 3.304688.246094 4.96875-13.199219-3.273438-26.6875-4.96875-40.246094-4.96875-92.632812 0-168 75.367188-168 168s75.367188 168 168 168 168-75.367188 168-168c0-13.566406-1.695312-27.054688-4.96875-40.246094 1.65625.0625 3.289062.246094 4.96875.246094 3.839844 0 7.625-.238281 11.382812-.574219 3.007813 13.316407 4.617188 26.925781 4.617188 40.574219 0 101.464844-82.535156 184-184 184zm0 0"/><path d="m224 296c0-10.414062-6.710938-19.214844-16-22.527344v-97.472656h-16v97.472656c-9.289062 3.3125-16 12.113282-16 22.527344 0 13.230469 10.769531 24 24 24 3.695312 0 7.152344-.902344 10.28125-2.40625l56.0625 56.0625 11.3125-11.3125-56.0625-56.0625c1.503906-3.128906 2.40625-6.585938 2.40625-10.28125zm-32 0c0-4.414062 3.585938-8 8-8s8 3.585938 8 8-3.585938 8-8 8-8-3.585938-8-8zm0 0"/><path d="m440 272c-13.230469 0-24 10.769531-24 24 0 10.007812 6.167969 18.59375 14.894531 22.183594-5.015625 52.671875-27.992187 102.25-65.214843 140.214844l11.425781 11.203124c39.992187-40.785156 64.589843-94.105468 69.796875-150.738281 9.859375-2.984375 17.097656-12.039062 17.097656-22.863281 0-13.230469-10.769531-24-24-24zm0 32c-4.414062 0-8-3.585938-8-8s3.585938-8 8-8 8 3.585938 8 8-3.585938 8-8 8zm0 0"/><path d="m42.265625 125.863281c37.261719-34.566406 85.207031-55.824219 135.589844-60.632812 3.632812 8.664062 12.183593 14.769531 22.144531 14.769531 13.230469 0 24-10.769531 24-24s-10.769531-24-24-24c-10.816406 0-19.878906 7.238281-22.863281 17.097656-54.167969 4.992188-105.710938 27.910156-145.746094 65.039063zm157.734375-77.863281c4.414062 0 8 3.585938 8 8s-3.585938 8-8 8-8-3.585938-8-8 3.585938-8 8-8zm0 0"/></svg>