<svg version="1.1" id="Layer_1" xmlns="http://www.w3.org/2000/svg" xmlns:xlink="http://www.w3.org/1999/xlink" x="0px" y="0px" viewBox="0 0 512 512" xml:space="preserve"> <path style="fill:#FFDB6F;" d="M255.72,217.802c21.882,0,39.623,17.742,39.623,39.623c0,21.882-17.742,39.623-39.623,39.623 c-21.895,0-39.637-17.742-39.637-39.623C216.083,235.544,233.824,217.802,255.72,217.802z"/> <path style="fill:#31CCC9;" d="M255.72,132.637c68.917,0,124.788,55.872,124.788,124.788S324.636,382.214,255.72,382.214 s-124.788-55.872-124.788-124.788S186.803,132.637,255.72,132.637z M295.343,257.425c0-21.882-17.742-39.623-39.623-39.623 c-21.895,0-39.637,17.742-39.637,39.623c0,21.882,17.742,39.623,39.637,39.623C277.601,297.049,295.343,279.307,295.343,257.425z"/> <g> <path style="fill:#E4F5F4;" d="M477.551,241.028c7.507,9.624,7.507,23.171,0,32.795c-51.46,65.971-131.684,108.391-221.831,108.391 c68.917,0,124.788-55.872,124.788-124.788S324.636,132.637,255.72,132.637c67.613,0,129.648,23.864,178.135,63.623 c2.756,2.267,5.47,4.575,8.145,6.936L477.551,241.028z"/> <path style="fill:#E4F5F4;" d="M255.72,382.214c-90.147,0-170.384-42.42-221.831-108.391c-7.507-9.624-7.507-23.171,0-32.795 c51.447-65.971,131.684-108.391,221.831-108.391c-68.917,0-124.788,55.872-124.788,124.788S186.803,382.214,255.72,382.214z"/> </g> <g> <path style="fill:#201F2E;" d="M487.464,232.092c-4.15-5.321-11.825-6.267-17.147-2.12c-5.32,4.15-6.269,11.826-2.12,17.147 c4.078,5.23,4.078,12.533,0,17.763c-29.884,38.315-68.55,67.106-112.08,84.513c22.879-24.497,36.888-57.346,36.888-93.395 c0-35.907-13.892-68.638-36.576-93.083c25.153,10.114,48.798,24.014,69.966,41.37c2.627,2.153,5.246,4.386,7.79,6.638 c5.052,4.473,12.772,4.003,17.245-1.048s4.003-12.773-1.048-17.245c-2.773-2.457-5.632-4.892-8.496-7.239 c-52.22-42.815-118.237-66.395-185.886-66.395c-91.043,0-175.408,41.221-231.463,113.094c-10.979,14.077-10.979,33.74,0,47.818 c56.055,71.873,140.42,113.094,231.463,113.094c91.041,0,175.407-41.221,231.465-113.094 C498.443,265.831,498.443,246.17,487.464,232.092z M43.804,264.882c-4.078-5.23-4.078-12.533,0-17.763 c29.877-38.308,68.535-67.095,112.057-84.504C133.006,187.1,118.995,219.936,118.995,256c0,36.051,14.01,68.9,36.865,93.386 C112.339,331.977,73.68,303.19,43.804,264.882z M256.149,368.567c-0.049,0-0.098,0.001-0.148,0.001 c-0.05,0-0.098-0.001-0.148-0.001c-62.007-0.08-112.424-50.542-112.424-112.567s50.416-112.487,112.424-112.567 c0.049,0,0.098-0.001,0.148-0.001c0.038,0,0.076,0.001,0.114,0.001c62.022,0.062,112.457,50.532,112.457,112.569 C368.572,318.025,318.155,368.487,256.149,368.567z"/> <path style="fill:#201F2E;" d="M256.001,204.16c-28.587,0-51.84,23.253-51.84,51.84s23.253,51.84,51.84,51.84 s51.84-23.253,51.84-51.84S284.588,204.16,256.001,204.16z M256.001,283.406c-15.108,0-27.406-12.298-27.406-27.406 c0-15.108,12.298-27.406,27.406-27.406s27.406,12.298,27.406,27.406C283.407,271.108,271.109,283.406,256.001,283.406z"/> <path style="fill:#201F2E;" d="M256.001,70.247c6.748,0,12.217-5.469,12.217-12.217V12.217C268.218,5.469,262.748,0,256.001,0 s-12.217,5.469-12.217,12.217V58.03C243.784,64.778,249.253,70.247,256.001,70.247z"/> <path style="fill:#201F2E;" d="M256.001,441.753c-6.748,0-12.217,5.469-12.217,12.217v45.813c0,6.748,5.469,12.217,12.217,12.217 s12.217-5.469,12.217-12.217V453.97C268.218,447.222,262.747,441.753,256.001,441.753z"/> <path style="fill:#201F2E;" d="M405.585,118.632c3.126,0,6.252-1.193,8.639-3.578l22.797-22.795c4.771-4.771,4.771-12.506,0-17.279 c-4.771-4.77-12.505-4.77-17.279,0l-22.795,22.795c-4.771,4.771-4.771,12.506,0,17.279 C399.333,117.439,402.458,118.632,405.585,118.632z"/> <path style="fill:#201F2E;" d="M97.778,396.946l-22.797,22.795c-4.771,4.771-4.771,12.506,0,17.279 c2.386,2.385,5.513,3.578,8.639,3.578c3.126,0,6.252-1.193,8.639-3.578l22.797-22.795c4.771-4.771,4.771-12.506,0-17.279 C110.285,392.177,102.55,392.176,97.778,396.946z"/> <path style="fill:#201F2E;" d="M97.778,115.054c2.385,2.385,5.513,3.578,8.639,3.578s6.254-1.193,8.639-3.578 c4.771-4.773,4.77-12.507,0-17.279L92.258,74.98c-4.771-4.77-12.506-4.77-17.277,0c-4.771,4.773-4.77,12.507,0,17.279 L97.778,115.054z"/> <path style="fill:#201F2E;" d="M414.224,396.946c-4.773-4.77-12.506-4.77-17.279,0c-4.771,4.773-4.771,12.507,0,17.279 l22.797,22.795c2.386,2.385,5.513,3.578,8.639,3.578s6.252-1.193,8.639-3.578c4.771-4.773,4.771-12.507,0-17.279L414.224,396.946z" /> </g></svg>