<?xml version="1.0" encoding="UTF-8"?><!DOCTYPE svg PUBLIC "-//W3C//DTD SVG 1.1//EN" "http://www.w3.org/Graphics/SVG/1.1/DTD/svg11.dtd"><svg version="1.1" xmlns="http://www.w3.org/2000/svg" xmlns:xlink="http://www.w3.org/1999/xlink" x="0" y="0" width="48" height="48" viewBox="0, 0, 48, 48">  <g id="Icons">    <path d="M15.513,16.505 L11.584,16.505 C11.036,16.505 10.592,16.949 10.592,17.497 L10.592,20.641 C10.592,21.188 11.036,21.632 11.584,21.632 L15.513,21.632 C16.06,21.632 16.504,21.188 16.504,20.641 L16.504,17.497 C16.504,16.949 16.06,16.505 15.513,16.505 z" fill="#FFDB5E"/>    <g>      <path d="M38.528,34.845 L9.45,34.845 C8.23,34.845 7.241,33.856 7.241,32.636 L7.241,15.35 C7.241,14.13 8.23,13.141 9.45,13.141 L38.528,13.141 C39.748,13.141 40.737,14.13 40.737,15.35 L40.737,32.636 C40.737,33.856 39.748,34.845 38.528,34.845 z" fill="#FBFBFB"/>      <path d="M38.528,34.845 L9.45,34.845 C8.23,34.845 7.241,33.856 7.241,32.636 L7.241,15.35 C7.241,14.13 8.23,13.141 9.45,13.141 L38.528,13.141 C39.748,13.141 40.737,14.13 40.737,15.35 L40.737,32.636 C40.737,33.856 39.748,34.845 38.528,34.845 z" fill-opacity="0" stroke="#303030" stroke-width="0.8" stroke-linecap="round" stroke-linejoin="round" stroke-miterlimit="10"/>    </g>    <g>      <path d="M15.513,16.505 L11.584,16.505 C11.036,16.505 10.592,16.949 10.592,17.497 L10.592,20.641 C10.592,21.188 11.036,21.632 11.584,21.632 L15.513,21.632 C16.06,21.632 16.504,21.188 16.504,20.641 L16.504,17.497 C16.504,16.949 16.06,16.505 15.513,16.505 z" fill="#FFCF5D"/>      <path d="M15.513,16.505 L11.584,16.505 C11.036,16.505 10.592,16.949 10.592,17.497 L10.592,20.641 C10.592,21.188 11.036,21.632 11.584,21.632 L15.513,21.632 C16.06,21.632 16.504,21.188 16.504,20.641 L16.504,17.497 C16.504,16.949 16.06,16.505 15.513,16.505 z" fill-opacity="0" stroke="#303030" stroke-width="0.5" stroke-linecap="round" stroke-linejoin="round" stroke-miterlimit="10"/>    </g>    <path d="M12.7,16.505 C12.588,16.746 12.457,17.101 12.377,17.543 C12.3,17.973 12.274,18.49 12.366,19.067 C12.44,19.532 12.59,20.035 12.856,20.568" fill-opacity="0" stroke="#303030" stroke-width="0.4" stroke-linecap="round" stroke-linejoin="round" stroke-miterlimit="10"/>    <path d="M10.592,20.567 L16.504,20.567" fill-opacity="0" stroke="#303030" stroke-width="0.4" stroke-linecap="round" stroke-linejoin="round" stroke-miterlimit="10"/>    <path d="M12.377,17.543 L10.591,17.543" fill-opacity="0" stroke="#303030" stroke-width="0.4" stroke-linecap="round" stroke-linejoin="round" stroke-miterlimit="10"/>    <path d="M12.366,19.067 L10.591,19.067" fill-opacity="0" stroke="#303030" stroke-width="0.4" stroke-linecap="round" stroke-linejoin="round" stroke-miterlimit="10"/>    <path d="M14.523,16.505 C14.634,16.746 14.764,17.101 14.844,17.543 C14.922,17.973 14.946,18.49 14.856,19.067 C14.78,19.532 14.631,20.035 14.365,20.568" fill-opacity="0" stroke="#303030" stroke-width="0.4" stroke-linecap="round" stroke-linejoin="round" stroke-miterlimit="10"/>    <path d="M16.503,17.543 L14.844,17.543" fill-opacity="0" stroke="#303030" stroke-width="0.4" stroke-linecap="round" stroke-linejoin="round" stroke-miterlimit="10"/>    <path d="M16.503,19.067 L14.856,19.067" fill-opacity="0" stroke="#303030" stroke-width="0.4" stroke-linecap="round" stroke-linejoin="round" stroke-miterlimit="10"/>    <path d="M26.571,18.036 L36.962,18.036" fill-opacity="0" stroke="#303030" stroke-width="0.8" stroke-linecap="round" stroke-linejoin="round" stroke-miterlimit="10"/>    <path d="M10.484,29.738 L22.007,29.738" fill-opacity="0" stroke="#303030" stroke-width="0.8" stroke-linecap="round" stroke-linejoin="round" stroke-miterlimit="10"/>    <path d="M10.037,24.395 C10.037,24.329 10.053,24.269 10.083,24.217 C10.114,24.165 10.156,24.121 10.208,24.083 C10.26,24.045 10.321,24.017 10.389,23.998 C10.457,23.979 10.528,23.969 10.602,23.969 C10.677,23.969 10.748,23.979 10.817,23.998 C10.885,24.017 10.945,24.045 10.997,24.083 C11.049,24.121 11.09,24.165 11.122,24.217 C11.152,24.269 11.168,24.329 11.168,24.395 L11.168,25.563 C11.168,25.63 11.152,25.69 11.122,25.742 C11.09,25.794 11.049,25.839 10.997,25.876 C10.945,25.913 10.885,25.941 10.817,25.962 C10.748,25.98 10.677,25.99 10.602,25.99 C10.528,25.99 10.457,25.98 10.389,25.962 C10.321,25.941 10.26,25.913 10.208,25.876 C10.156,25.839 10.114,25.794 10.083,25.742 C10.053,25.69 10.037,25.63 10.037,25.563 L10.037,24.395 z M10.417,25.563 C10.417,25.604 10.434,25.638 10.469,25.665 C10.503,25.692 10.548,25.706 10.602,25.706 C10.657,25.706 10.702,25.692 10.737,25.665 C10.771,25.638 10.788,25.604 10.788,25.563 L10.788,24.395 C10.788,24.355 10.771,24.321 10.737,24.293 C10.702,24.267 10.657,24.253 10.602,24.253 C10.548,24.253 10.503,24.267 10.469,24.293 C10.434,24.321 10.417,24.355 10.417,24.395 L10.417,25.563 z" fill="#303030"/>    <path d="M11.421,24.395 C11.421,24.329 11.437,24.269 11.468,24.217 C11.499,24.165 11.54,24.121 11.592,24.083 C11.644,24.045 11.705,24.017 11.773,23.998 C11.841,23.979 11.912,23.969 11.986,23.969 C12.061,23.969 12.132,23.979 12.201,23.998 C12.269,24.017 12.329,24.045 12.381,24.083 C12.433,24.121 12.474,24.165 12.506,24.217 C12.536,24.269 12.552,24.329 12.552,24.395 L12.552,25.563 C12.552,25.63 12.536,25.69 12.506,25.742 C12.474,25.794 12.433,25.839 12.381,25.876 C12.329,25.913 12.269,25.941 12.201,25.962 C12.132,25.98 12.061,25.99 11.986,25.99 C11.912,25.99 11.841,25.98 11.773,25.962 C11.705,25.941 11.644,25.913 11.592,25.876 C11.54,25.839 11.499,25.794 11.468,25.742 C11.437,25.69 11.421,25.63 11.421,25.563 L11.421,24.395 z M11.801,25.563 C11.801,25.604 11.818,25.638 11.853,25.665 C11.887,25.692 11.932,25.706 11.986,25.706 C12.041,25.706 12.086,25.692 12.12,25.665 C12.155,25.638 12.173,25.604 12.173,25.563 L12.173,24.395 C12.173,24.355 12.155,24.321 12.12,24.293 C12.086,24.267 12.041,24.253 11.986,24.253 C11.932,24.253 11.887,24.267 11.853,24.293 C11.818,24.321 11.801,24.355 11.801,24.395 L11.801,25.563 z" fill="#303030"/>    <path d="M12.805,24.395 C12.805,24.329 12.82,24.269 12.851,24.217 C12.883,24.165 12.924,24.121 12.976,24.083 C13.028,24.045 13.089,24.017 13.157,23.998 C13.225,23.979 13.296,23.969 13.37,23.969 C13.445,23.969 13.516,23.979 13.585,23.998 C13.653,24.017 13.713,24.045 13.765,24.083 C13.817,24.121 13.858,24.165 13.89,24.217 C13.92,24.269 13.936,24.329 13.936,24.395 L13.936,25.563 C13.936,25.63 13.92,25.69 13.89,25.742 C13.858,25.794 13.817,25.839 13.765,25.876 C13.713,25.913 13.653,25.941 13.585,25.962 C13.516,25.98 13.445,25.99 13.37,25.99 C13.296,25.99 13.225,25.98 13.157,25.962 C13.089,25.941 13.028,25.913 12.976,25.876 C12.924,25.839 12.883,25.794 12.851,25.742 C12.82,25.69 12.805,25.63 12.805,25.563 L12.805,24.395 z M13.185,25.563 C13.185,25.604 13.202,25.638 13.237,25.665 C13.271,25.692 13.316,25.706 13.37,25.706 C13.425,25.706 13.47,25.692 13.504,25.665 C13.539,25.638 13.556,25.604 13.556,25.563 L13.556,24.395 C13.556,24.355 13.539,24.321 13.504,24.293 C13.47,24.267 13.425,24.253 13.37,24.253 C13.316,24.253 13.271,24.267 13.237,24.293 C13.202,24.321 13.185,24.355 13.185,24.395 L13.185,25.563 z" fill="#303030"/>    <path d="M14.189,24.395 C14.189,24.329 14.204,24.269 14.235,24.217 C14.267,24.165 14.308,24.121 14.36,24.083 C14.412,24.045 14.472,24.017 14.541,23.998 C14.609,23.979 14.68,23.969 14.754,23.969 C14.829,23.969 14.9,23.979 14.969,23.998 C15.037,24.017 15.097,24.045 15.149,24.083 C15.201,24.121 15.242,24.165 15.274,24.217 C15.304,24.269 15.32,24.329 15.32,24.395 L15.32,25.563 C15.32,25.63 15.304,25.69 15.274,25.742 C15.242,25.794 15.201,25.839 15.149,25.876 C15.097,25.913 15.037,25.941 14.969,25.962 C14.9,25.98 14.829,25.99 14.754,25.99 C14.68,25.99 14.609,25.98 14.541,25.962 C14.472,25.941 14.412,25.913 14.36,25.876 C14.308,25.839 14.267,25.794 14.235,25.742 C14.204,25.69 14.189,25.63 14.189,25.563 L14.189,24.395 z M14.569,25.563 C14.569,25.604 14.586,25.638 14.621,25.665 C14.655,25.692 14.7,25.706 14.754,25.706 C14.809,25.706 14.854,25.692 14.888,25.665 C14.923,25.638 14.94,25.604 14.94,25.563 L14.94,24.395 C14.94,24.355 14.923,24.321 14.888,24.293 C14.854,24.267 14.809,24.253 14.754,24.253 C14.7,24.253 14.655,24.267 14.621,24.293 C14.586,24.321 14.569,24.355 14.569,24.395 L14.569,25.563 z" fill="#303030"/>    <path d="M16.956,24.395 C16.956,24.329 16.972,24.269 17.003,24.217 C17.034,24.165 17.075,24.121 17.127,24.083 C17.18,24.045 17.24,24.017 17.308,23.998 C17.376,23.979 17.448,23.969 17.522,23.969 C17.597,23.969 17.667,23.979 17.736,23.998 C17.804,24.017 17.864,24.045 17.916,24.083 C17.969,24.121 18.01,24.165 18.041,24.217 C18.072,24.269 18.087,24.329 18.087,24.395 L18.087,25.563 C18.087,25.63 18.072,25.69 18.041,25.742 C18.01,25.794 17.969,25.839 17.916,25.876 C17.864,25.913 17.804,25.941 17.736,25.962 C17.667,25.98 17.597,25.99 17.522,25.99 C17.448,25.99 17.376,25.98 17.308,25.962 C17.24,25.941 17.18,25.913 17.127,25.876 C17.075,25.839 17.034,25.794 17.003,25.742 C16.972,25.69 16.956,25.63 16.956,25.563 L16.956,24.395 z M17.336,25.563 C17.336,25.604 17.353,25.638 17.388,25.665 C17.423,25.692 17.468,25.706 17.522,25.706 C17.577,25.706 17.622,25.692 17.656,25.665 C17.691,25.638 17.708,25.604 17.708,25.563 L17.708,24.395 C17.708,24.355 17.691,24.321 17.656,24.293 C17.622,24.267 17.577,24.253 17.522,24.253 C17.468,24.253 17.423,24.267 17.388,24.293 C17.353,24.321 17.336,24.355 17.336,24.395 L17.336,25.563 z" fill="#303030"/>    <path d="M18.34,24.395 C18.34,24.329 18.356,24.269 18.387,24.217 C18.418,24.165 18.46,24.121 18.512,24.083 C18.564,24.045 18.624,24.017 18.692,23.998 C18.76,23.979 18.832,23.969 18.906,23.969 C18.981,23.969 19.051,23.979 19.12,23.998 C19.188,24.017 19.248,24.045 19.3,24.083 C19.353,24.121 19.394,24.165 19.425,24.217 C19.456,24.269 19.471,24.329 19.471,24.395 L19.471,25.563 C19.471,25.63 19.456,25.69 19.425,25.742 C19.394,25.794 19.353,25.839 19.3,25.876 C19.248,25.913 19.188,25.941 19.12,25.962 C19.051,25.98 18.981,25.99 18.906,25.99 C18.832,25.99 18.76,25.98 18.692,25.962 C18.624,25.941 18.564,25.913 18.512,25.876 C18.46,25.839 18.418,25.794 18.387,25.742 C18.356,25.69 18.34,25.63 18.34,25.563 L18.34,24.395 z M18.72,25.563 C18.72,25.604 18.738,25.638 18.772,25.665 C18.807,25.692 18.852,25.706 18.906,25.706 C18.961,25.706 19.005,25.692 19.04,25.665 C19.075,25.638 19.092,25.604 19.092,25.563 L19.092,24.395 C19.092,24.355 19.075,24.321 19.04,24.293 C19.005,24.267 18.961,24.253 18.906,24.253 C18.852,24.253 18.807,24.267 18.772,24.293 C18.738,24.321 18.72,24.355 18.72,24.395 L18.72,25.563 z" fill="#303030"/>    <path d="M19.724,24.395 C19.724,24.329 19.74,24.269 19.771,24.217 C19.802,24.165 19.843,24.121 19.896,24.083 C19.948,24.045 20.008,24.017 20.076,23.998 C20.144,23.979 20.216,23.969 20.29,23.969 C20.365,23.969 20.436,23.979 20.504,23.998 C20.572,24.017 20.632,24.045 20.684,24.083 C20.737,24.121 20.778,24.165 20.809,24.217 C20.84,24.269 20.855,24.329 20.855,24.395 L20.855,25.563 C20.855,25.63 20.84,25.69 20.809,25.742 C20.778,25.794 20.737,25.839 20.684,25.876 C20.632,25.913 20.572,25.941 20.504,25.962 C20.435,25.98 20.365,25.99 20.29,25.99 C20.216,25.99 20.144,25.98 20.076,25.962 C20.008,25.941 19.948,25.913 19.896,25.876 C19.843,25.839 19.802,25.794 19.771,25.742 C19.74,25.69 19.724,25.63 19.724,25.563 L19.724,24.395 z M20.104,25.563 C20.104,25.604 20.121,25.638 20.156,25.665 C20.191,25.692 20.236,25.706 20.29,25.706 C20.345,25.706 20.39,25.692 20.424,25.665 C20.459,25.638 20.476,25.604 20.476,25.563 L20.476,24.395 C20.476,24.355 20.459,24.321 20.424,24.293 C20.39,24.267 20.345,24.253 20.29,24.253 C20.236,24.253 20.191,24.267 20.156,24.293 C20.121,24.321 20.104,24.355 20.104,24.395 L20.104,25.563 z" fill="#303030"/>    <path d="M21.108,24.395 C21.108,24.329 21.124,24.269 21.155,24.217 C21.186,24.165 21.227,24.121 21.279,24.083 C21.332,24.045 21.392,24.017 21.46,23.998 C21.528,23.979 21.6,23.969 21.674,23.969 C21.749,23.969 21.82,23.979 21.888,23.998 C21.956,24.017 22.016,24.045 22.068,24.083 C22.121,24.121 22.162,24.165 22.193,24.217 C22.224,24.269 22.239,24.329 22.239,24.395 L22.239,25.563 C22.239,25.63 22.224,25.69 22.193,25.742 C22.162,25.794 22.121,25.839 22.068,25.876 C22.016,25.913 21.956,25.941 21.888,25.962 C21.82,25.98 21.749,25.99 21.674,25.99 C21.6,25.99 21.528,25.98 21.46,25.962 C21.392,25.941 21.332,25.913 21.279,25.876 C21.227,25.839 21.186,25.794 21.155,25.742 C21.124,25.69 21.108,25.63 21.108,25.563 L21.108,24.395 z M21.488,25.563 C21.488,25.604 21.505,25.638 21.54,25.665 C21.575,25.692 21.619,25.706 21.674,25.706 C21.729,25.706 21.773,25.692 21.808,25.665 C21.843,25.638 21.86,25.604 21.86,25.563 L21.86,24.395 C21.86,24.355 21.843,24.321 21.808,24.293 C21.773,24.267 21.729,24.253 21.674,24.253 C21.619,24.253 21.575,24.267 21.54,24.293 C21.505,24.321 21.488,24.355 21.488,24.395 L21.488,25.563 z" fill="#303030"/>    <path d="M23.876,24.395 C23.876,24.329 23.891,24.269 23.922,24.217 C23.953,24.165 23.995,24.121 24.047,24.083 C24.099,24.045 24.159,24.017 24.227,23.998 C24.296,23.979 24.367,23.969 24.441,23.969 C24.516,23.969 24.587,23.979 24.656,23.998 C24.724,24.017 24.783,24.045 24.835,24.083 C24.888,24.121 24.929,24.165 24.961,24.217 C24.991,24.269 25.007,24.329 25.007,24.395 L25.007,25.563 C25.007,25.63 24.991,25.69 24.961,25.742 C24.929,25.794 24.888,25.839 24.835,25.876 C24.783,25.913 24.724,25.941 24.656,25.962 C24.587,25.98 24.516,25.99 24.441,25.99 C24.367,25.99 24.296,25.98 24.227,25.962 C24.159,25.941 24.099,25.913 24.047,25.876 C23.995,25.839 23.953,25.794 23.922,25.742 C23.891,25.69 23.876,25.63 23.876,25.563 L23.876,24.395 z M24.256,25.563 C24.256,25.604 24.273,25.638 24.308,25.665 C24.342,25.692 24.387,25.706 24.441,25.706 C24.496,25.706 24.541,25.692 24.575,25.665 C24.61,25.638 24.627,25.604 24.627,25.563 L24.627,24.395 C24.627,24.355 24.61,24.321 24.575,24.293 C24.541,24.267 24.496,24.253 24.441,24.253 C24.387,24.253 24.342,24.267 24.308,24.293 C24.273,24.321 24.256,24.355 24.256,24.395 L24.256,25.563 z" fill="#303030"/>    <path d="M25.26,24.395 C25.26,24.329 25.275,24.269 25.306,24.217 C25.337,24.165 25.379,24.121 25.431,24.083 C25.483,24.045 25.543,24.017 25.611,23.998 C25.68,23.979 25.751,23.969 25.825,23.969 C25.9,23.969 25.971,23.979 26.04,23.998 C26.108,24.017 26.168,24.045 26.22,24.083 C26.272,24.121 26.313,24.165 26.345,24.217 C26.375,24.269 26.391,24.329 26.391,24.395 L26.391,25.563 C26.391,25.63 26.375,25.69 26.345,25.742 C26.313,25.794 26.272,25.839 26.22,25.876 C26.168,25.913 26.108,25.941 26.04,25.962 C25.971,25.98 25.9,25.99 25.825,25.99 C25.751,25.99 25.68,25.98 25.611,25.962 C25.543,25.941 25.483,25.913 25.431,25.876 C25.379,25.839 25.337,25.794 25.306,25.742 C25.275,25.69 25.26,25.63 25.26,25.563 L25.26,24.395 z M25.64,25.563 C25.64,25.604 25.657,25.638 25.692,25.665 C25.726,25.692 25.771,25.706 25.825,25.706 C25.88,25.706 25.925,25.692 25.959,25.665 C25.994,25.638 26.011,25.604 26.011,25.563 L26.011,24.395 C26.011,24.355 25.994,24.321 25.959,24.293 C25.925,24.267 25.88,24.253 25.825,24.253 C25.771,24.253 25.726,24.267 25.692,24.293 C25.657,24.321 25.64,24.355 25.64,24.395 L25.64,25.563 z" fill="#303030"/>    <path d="M26.644,24.395 C26.644,24.329 26.659,24.269 26.69,24.217 C26.721,24.165 26.763,24.121 26.815,24.083 C26.867,24.045 26.927,24.017 26.995,23.998 C27.064,23.979 27.135,23.969 27.209,23.969 C27.284,23.969 27.355,23.979 27.423,23.998 C27.492,24.017 27.551,24.045 27.604,24.083 C27.656,24.121 27.697,24.165 27.729,24.217 C27.759,24.269 27.775,24.329 27.775,24.395 L27.775,25.563 C27.775,25.63 27.759,25.69 27.729,25.742 C27.697,25.794 27.656,25.839 27.604,25.876 C27.551,25.913 27.492,25.941 27.423,25.962 C27.355,25.98 27.284,25.99 27.209,25.99 C27.135,25.99 27.064,25.98 26.995,25.962 C26.927,25.941 26.867,25.913 26.815,25.876 C26.763,25.839 26.721,25.794 26.69,25.742 C26.659,25.69 26.644,25.63 26.644,25.563 L26.644,24.395 z M27.024,25.563 C27.024,25.604 27.041,25.638 27.076,25.665 C27.11,25.692 27.155,25.706 27.209,25.706 C27.264,25.706 27.309,25.692 27.343,25.665 C27.378,25.638 27.395,25.604 27.395,25.563 L27.395,24.395 C27.395,24.355 27.378,24.321 27.343,24.293 C27.309,24.267 27.264,24.253 27.209,24.253 C27.155,24.253 27.11,24.267 27.076,24.293 C27.041,24.321 27.024,24.355 27.024,24.395 L27.024,25.563 z" fill="#303030"/>    <path d="M28.028,24.395 C28.028,24.329 28.043,24.269 28.074,24.217 C28.105,24.165 28.147,24.121 28.199,24.083 C28.251,24.045 28.311,24.017 28.38,23.998 C28.447,23.979 28.519,23.969 28.593,23.969 C28.668,23.969 28.739,23.979 28.808,23.998 C28.876,24.017 28.935,24.045 28.988,24.083 C29.04,24.121 29.081,24.165 29.113,24.217 C29.143,24.269 29.159,24.329 29.159,24.395 L29.159,25.563 C29.159,25.63 29.143,25.69 29.113,25.742 C29.081,25.794 29.04,25.839 28.988,25.876 C28.935,25.913 28.876,25.941 28.808,25.962 C28.739,25.98 28.668,25.99 28.593,25.99 C28.519,25.99 28.447,25.98 28.38,25.962 C28.311,25.941 28.251,25.913 28.199,25.876 C28.147,25.839 28.105,25.794 28.074,25.742 C28.043,25.69 28.028,25.63 28.028,25.563 L28.028,24.395 z M28.408,25.563 C28.408,25.604 28.425,25.638 28.46,25.665 C28.494,25.692 28.539,25.706 28.593,25.706 C28.648,25.706 28.693,25.692 28.727,25.665 C28.762,25.638 28.779,25.604 28.779,25.563 L28.779,24.395 C28.779,24.355 28.762,24.321 28.727,24.293 C28.693,24.267 28.648,24.253 28.593,24.253 C28.539,24.253 28.494,24.267 28.46,24.293 C28.425,24.321 28.408,24.355 28.408,24.395 L28.408,25.563 z" fill="#303030"/>    <path d="M30.795,24.395 C30.795,24.329 30.811,24.269 30.842,24.217 C30.873,24.165 30.914,24.121 30.966,24.083 C31.018,24.045 31.079,24.017 31.147,23.998 C31.215,23.979 31.286,23.969 31.361,23.969 C31.435,23.969 31.506,23.979 31.575,23.998 C31.643,24.017 31.703,24.045 31.755,24.083 C31.808,24.121 31.849,24.165 31.88,24.217 C31.911,24.269 31.926,24.329 31.926,24.395 L31.926,25.563 C31.926,25.63 31.911,25.69 31.88,25.742 C31.849,25.794 31.808,25.839 31.755,25.876 C31.703,25.913 31.643,25.941 31.575,25.962 C31.506,25.98 31.435,25.99 31.361,25.99 C31.286,25.99 31.215,25.98 31.147,25.962 C31.079,25.941 31.018,25.913 30.966,25.876 C30.914,25.839 30.873,25.794 30.842,25.742 C30.811,25.69 30.795,25.63 30.795,25.563 L30.795,24.395 z M31.175,25.563 C31.175,25.604 31.192,25.638 31.227,25.665 C31.261,25.692 31.306,25.706 31.361,25.706 C31.415,25.706 31.46,25.692 31.495,25.665 C31.529,25.638 31.547,25.604 31.547,25.563 L31.547,24.395 C31.547,24.355 31.529,24.321 31.495,24.293 C31.46,24.267 31.415,24.253 31.361,24.253 C31.306,24.253 31.261,24.267 31.227,24.293 C31.192,24.321 31.175,24.355 31.175,24.395 L31.175,25.563 z" fill="#303030"/>    <path d="M32.179,24.395 C32.179,24.329 32.195,24.269 32.226,24.217 C32.257,24.165 32.298,24.121 32.35,24.083 C32.402,24.045 32.463,24.017 32.531,23.998 C32.599,23.979 32.67,23.969 32.745,23.969 C32.819,23.969 32.89,23.979 32.959,23.998 C33.027,24.017 33.087,24.045 33.139,24.083 C33.192,24.121 33.233,24.165 33.264,24.217 C33.295,24.269 33.31,24.329 33.31,24.395 L33.31,25.563 C33.31,25.63 33.295,25.69 33.264,25.742 C33.233,25.794 33.192,25.839 33.139,25.876 C33.087,25.913 33.027,25.941 32.959,25.962 C32.89,25.98 32.819,25.99 32.745,25.99 C32.67,25.99 32.599,25.98 32.531,25.962 C32.463,25.941 32.402,25.913 32.35,25.876 C32.298,25.839 32.257,25.794 32.226,25.742 C32.195,25.69 32.179,25.63 32.179,25.563 L32.179,24.395 z M32.559,25.563 C32.559,25.604 32.576,25.638 32.611,25.665 C32.645,25.692 32.69,25.706 32.745,25.706 C32.799,25.706 32.844,25.692 32.879,25.665 C32.914,25.638 32.931,25.604 32.931,25.563 L32.931,24.395 C32.931,24.355 32.914,24.321 32.879,24.293 C32.844,24.267 32.799,24.253 32.745,24.253 C32.69,24.253 32.645,24.267 32.611,24.293 C32.576,24.321 32.559,24.355 32.559,24.395 L32.559,25.563 z" fill="#303030"/>    <path d="M33.563,24.395 C33.563,24.329 33.579,24.269 33.61,24.217 C33.641,24.165 33.682,24.121 33.734,24.083 C33.786,24.045 33.847,24.017 33.915,23.998 C33.983,23.979 34.054,23.969 34.129,23.969 C34.203,23.969 34.274,23.979 34.343,23.998 C34.411,24.017 34.471,24.045 34.523,24.083 C34.576,24.121 34.617,24.165 34.648,24.217 C34.679,24.269 34.694,24.329 34.694,24.395 L34.694,25.563 C34.694,25.63 34.679,25.69 34.648,25.742 C34.617,25.794 34.576,25.839 34.523,25.876 C34.471,25.913 34.411,25.941 34.343,25.962 C34.274,25.98 34.203,25.99 34.129,25.99 C34.054,25.99 33.983,25.98 33.915,25.962 C33.847,25.941 33.786,25.913 33.734,25.876 C33.682,25.839 33.641,25.794 33.61,25.742 C33.579,25.69 33.563,25.63 33.563,25.563 L33.563,24.395 z M33.943,25.563 C33.943,25.604 33.96,25.638 33.995,25.665 C34.029,25.692 34.074,25.706 34.129,25.706 C34.183,25.706 34.228,25.692 34.263,25.665 C34.297,25.638 34.315,25.604 34.315,25.563 L34.315,24.395 C34.315,24.355 34.297,24.321 34.263,24.293 C34.228,24.267 34.183,24.253 34.129,24.253 C34.074,24.253 34.029,24.267 33.995,24.293 C33.96,24.321 33.943,24.355 33.943,24.395 L33.943,25.563 z" fill="#303030"/>    <path d="M34.947,24.395 C34.947,24.329 34.963,24.269 34.994,24.217 C35.025,24.165 35.066,24.121 35.118,24.083 C35.17,24.045 35.231,24.017 35.299,23.998 C35.367,23.979 35.438,23.969 35.513,23.969 C35.587,23.969 35.658,23.979 35.727,23.998 C35.795,24.017 35.855,24.045 35.907,24.083 C35.96,24.121 36.001,24.165 36.032,24.217 C36.063,24.269 36.078,24.329 36.078,24.395 L36.078,25.563 C36.078,25.63 36.063,25.69 36.032,25.742 C36.001,25.794 35.96,25.839 35.907,25.876 C35.855,25.913 35.795,25.941 35.727,25.962 C35.658,25.98 35.587,25.99 35.513,25.99 C35.438,25.99 35.367,25.98 35.299,25.962 C35.231,25.941 35.17,25.913 35.118,25.876 C35.066,25.839 35.025,25.794 34.994,25.742 C34.963,25.69 34.947,25.63 34.947,25.563 L34.947,24.395 z M35.327,25.563 C35.327,25.604 35.344,25.638 35.379,25.665 C35.413,25.692 35.458,25.706 35.513,25.706 C35.567,25.706 35.612,25.692 35.647,25.665 C35.681,25.638 35.699,25.604 35.699,25.563 L35.699,24.395 C35.699,24.355 35.681,24.321 35.647,24.293 C35.612,24.267 35.567,24.253 35.513,24.253 C35.458,24.253 35.413,24.267 35.379,24.293 C35.344,24.321 35.327,24.355 35.327,24.395 L35.327,25.563 z" fill="#303030"/>  </g></svg>