<svg width="56" height="75" viewBox="0 0 56 75" xmlns="http://www.w3.org/2000/svg"><g fill="none" fill-rule="evenodd"><path d="M55.092 31.2H5.31C2.39 31.2 0 33.629 0 36.596v32.638c0 2.967 2.39 5.396 5.31 5.396h49.782V31.2z" fill="#FAC514"/><path d="M0 69.234V36.597C0 33.629 2.39 31.2 5.31 31.2h41.04v26.052L5.872 70.632 0 69.234z" fill="#D7AB05"/><path d="M38.092 47.66L4.561 70.872 0 69.222V36.511c0-4.132.34-6.756 8.766-13.144C15.739 18.077 38.092 0 38.092 0v47.66z" fill="#FAC514"/><path d="M25.187 29.638c1.827-2.212 4.494-2.992 5.96-1.742 1.465 1.248 1.171 4.054-.654 6.266-1.827 2.211-4.496 2.992-5.96 1.742-1.465-1.248-1.173-4.055.654-6.266" fill="#020202"/></g></svg>