<svg height="512pt" viewBox="0 0 512 512" width="512pt" xmlns="http://www.w3.org/2000/svg"><path d="m456.832031 0h-401.667969c-30.417968 0-55.164062 24.746094-55.164062 55.164062v401.667969c0 30.421875 24.746094 55.167969 55.164062 55.167969h401.667969c30.417969 0 55.164063-24.746094 55.164063-55.167969v-401.667969c0-30.417968-24.746094-55.164062-55.164063-55.164062zm0 0" fill="#00d8e0"/><path d="m456.832031 0h-200.835937v512h200.835937c30.417969 0 55.164063-24.746094 55.164063-55.167969v-401.667969c0-30.417968-24.746094-55.164062-55.164063-55.164062zm0 0" fill="#00acb3"/><path d="m175.824219 215.109375c-10.761719 0-16.871094 5.941406-16.871094 18.476563v44.828124c0 12.53125 6.109375 18.476563 16.710937 18.476563 10.445313 0 16.871094-5.941406 16.871094-18.476563v-9.480468h-13.015625c-4.175781 0-6.425781-4.015625-6.425781-8.195313 0-4.015625 2.25-8.191406 6.425781-8.191406h27.316407c4.179687 0 6.589843 3.210937 6.589843 6.75v19.117187c0 26.832032-16.550781 36.796876-37.761719 36.796876-21.207031 0-37.597656-9.964844-37.597656-36.796876v-44.828124c0-26.832032 16.550782-36.796876 36.957032-36.796876 22.171874 0 38.402343 11.570313 38.402343 30.855469 0 8.03125-3.535156 9.957031-10.445312 9.957031-5.625 0-10.285157-1.605468-10.445313-6.585937-.480468-7.550781-3.050781-15.90625-16.710937-15.90625zm0 0" fill="#fef4f5"/><path d="m246.035156 203.21875c0-4.5 5.144532-6.429688 10.441406-6.429688 5.144532 0 10.445313 1.929688 10.445313 6.429688v104.441406c0 4.335938-5.300781 6.585938-10.445313 6.585938-5.300781 0-10.441406-2.25-10.441406-6.585938zm0 0" fill="#fef4f5"/><g fill="#d5eded"><path d="m302.269531 203.378906c0-4.339844 4.5-6.589844 9.160157-6.589844h56.074218c4.5 0 6.425782 4.660157 6.425782 9 0 4.980469-2.25 9.320313-6.425782 9.320313h-44.347656v32.132813h24.582031c4.175781 0 6.425781 4.019531 6.425781 8.355468 0 3.699219-1.925781 8.035156-6.425781 8.035156h-24.582031v44.023438c0 4.339844-5.304688 6.585938-10.441406 6.585938-5.304688 0-10.445313-2.246094-10.445313-6.585938zm0 0"/><path d="m256.476562 196.789062c-.160156 0-.320312.011719-.480468.011719v117.429688c.160156.003906.320312.015625.480468.015625 5.144532 0 10.445313-2.25 10.445313-6.585938v-104.441406c0-4.5-5.300781-6.429688-10.445313-6.429688zm0 0"/></g></svg>