<svg height="464pt" viewBox="0 0 464 464" width="464pt" xmlns="http://www.w3.org/2000/svg"><path d="m464 75.273438v-43.273438c0-17.671875-14.328125-32-32-32h-400c-17.671875 0-32 14.328125-32 32v400c0 17.671875 14.328125 32 32 32h78.488281c52.085938-29.359375 100.867188-64.226562 145.511719-104 88.578125-79.230469 159.453125-176.25 208-284.726562zm0 0" fill="#f1f2f2"/><path d="m256 360c-44.644531 39.773438-93.425781 74.640625-145.511719 104h321.511719c17.671875 0 32-14.328125 32-32v-356.726562c-48.546875 108.476562-119.421875 205.496093-208 284.726562zm0 0" fill="#e6e7e8"/><path d="m48 176h40v240h-40zm0 0" fill="#ffcd00"/><path d="m88 176h40v240h-40zm0 0" fill="#ffd31c"/><path d="m232 48h40v368h-40zm0 0" fill="#ff4764"/><path d="m192 48h40v368h-40zm0 0" fill="#ff3051"/><path d="m336 256h40v160h-40zm0 0" fill="#5eac24"/><path d="m376 256h40v160h-40zm0 0" fill="#70b53c"/></svg>