<svg xmlns="http://www.w3.org/2000/svg" viewBox="0 0 24 24"><title>comment_outline_24</title><path d="M0,0H24V24H0Z" fill="none"/><path d="M7.84,22.53A2,2,0,0,1,7.1,21V18.9H5.5a3.26,3.26,0,0,1-3.4-3.4v-9A3.26,3.26,0,0,1,5.5,3.1h13a3.26,3.26,0,0,1,3.4,3.4v9a3.26,3.26,0,0,1-3.4,3.4H13.84l-3.72,3.26A1.69,1.69,0,0,1,7.84,22.53Zm4.93-5.09a1.4,1.4,0,0,1,.92-.35H18.5a1.47,1.47,0,0,0,1.6-1.6v-9a1.47,1.47,0,0,0-1.6-1.6H5.5A1.47,1.47,0,0,0,3.9,6.5v9a1.47,1.47,0,0,0,1.6,1.6H8c.7.2.7.2.9.9v2.83Z" fill="#828a99"/></svg>